<svg width="225" height="224" viewBox="0 0 225 224" fill="none" xmlns="http://www.w3.org/2000/svg">
<path fill-rule="evenodd" clip-rule="evenodd" d="M170 46.0002C170.552 46.0002 171 46.448 171 47.0002C171 140.088 96.1808 215.701 3.39765 216.984L8.07107 221.657C8.46159 222.048 8.46159 222.681 8.07107 223.071C7.68054 223.462 7.04738 223.462 6.65685 223.071L0.292893 216.707C-0.0976311 216.317 -0.0976311 215.684 0.292893 215.293L6.65685 208.929C7.04738 208.539 7.68054 208.539 8.07107 208.929C8.46159 209.32 8.46159 209.953 8.07107 210.343L3.43145 214.983C95.0943 213.683 169 138.972 169 47.0002C169 46.448 169.448 46.0002 170 46.0002Z" fill="#EB0029"/>
<path d="M138.39 15.0603C138.15 15.0736 137.95 14.9603 137.79 14.7203C137.63 14.4803 137.557 14.2803 137.57 14.1203C137.583 13.9069 137.643 13.6003 137.75 13.2003C137.857 12.8003 137.977 12.3936 138.11 11.9803C138.243 11.5669 138.363 11.2403 138.47 11.0003C138.523 10.7869 138.57 10.6003 138.61 10.4403C138.663 10.2669 138.697 10.1536 138.71 10.1003C138.75 10.0469 138.81 9.90694 138.89 9.68027C138.983 9.45361 139.057 9.23361 139.11 9.02027C139.137 8.91361 139.19 8.71361 139.27 8.42027C139.363 8.11361 139.47 7.76027 139.59 7.36027C139.723 6.96027 139.85 6.56694 139.97 6.18027C140.103 5.79361 140.217 5.45361 140.31 5.16027C140.403 4.86694 140.463 4.67361 140.49 4.58027C140.597 4.42027 140.677 4.26694 140.73 4.12027C140.783 3.97361 140.817 3.87361 140.83 3.82027C140.91 3.76694 140.957 3.70027 140.97 3.62027C140.983 3.52694 140.99 3.45361 140.99 3.40027C140.99 3.33361 141.01 3.28027 141.05 3.24027C141.103 3.20027 141.13 3.15361 141.13 3.10027C141.183 3.06027 141.217 3.05361 141.23 3.08027C141.243 3.10694 141.283 3.08694 141.35 3.02027L141.45 2.34027L143.23 2.32027C143.203 2.48027 143.163 2.68027 143.11 2.92027C143.057 3.14694 142.93 3.45361 142.73 3.84027C142.663 4.10694 142.583 4.34694 142.49 4.56027C142.41 4.77361 142.377 4.91361 142.39 4.98027C142.363 5.00694 142.303 5.14027 142.21 5.38027C142.13 5.62027 142.03 5.91361 141.91 6.26027C141.803 6.60694 141.69 6.95361 141.57 7.30027C141.463 7.64694 141.363 7.95361 141.27 8.22027C141.19 8.47361 141.137 8.63361 141.11 8.70027C141.003 8.91361 140.883 9.22694 140.75 9.64027C140.617 10.0536 140.417 10.6136 140.15 11.3203C140.043 11.5336 139.91 11.8536 139.75 12.2803C139.603 12.7069 139.483 13.0936 139.39 13.4403C139.243 13.9603 139.11 14.3336 138.99 14.5603C138.883 14.7869 138.783 14.9203 138.69 14.9603C138.597 15.0136 138.497 15.0469 138.39 15.0603ZM138.57 3.30027C138.023 3.35361 137.65 3.28694 137.45 3.10027C137.263 2.91361 137.197 2.71361 137.25 2.50027C137.29 2.34027 137.383 2.20694 137.53 2.10027C137.69 1.98027 137.977 1.88027 138.39 1.80027C138.537 1.77361 138.723 1.74027 138.95 1.70027C139.19 1.66027 139.417 1.62027 139.63 1.58027C140.07 1.52694 140.43 1.48027 140.71 1.44027C141.003 1.40027 141.303 1.36694 141.61 1.34027C141.917 1.31361 142.303 1.28694 142.77 1.26027C143.157 1.23361 143.483 1.21361 143.75 1.20027C144.03 1.17361 144.17 1.16027 144.17 1.16027C144.21 1.16027 144.35 1.17361 144.59 1.20027C144.83 1.22694 145.09 1.26027 145.37 1.30027C145.65 1.34027 145.857 1.38694 145.99 1.44027C146.297 1.50694 146.543 1.62694 146.73 1.80027C146.917 1.97361 147.037 2.17361 147.09 2.40027C147.13 2.56027 147.13 2.68694 147.09 2.78027C147.05 2.86027 146.977 2.92694 146.87 2.98027C146.563 3.07361 146.31 3.15361 146.11 3.22027C145.923 3.27361 145.737 3.26694 145.55 3.20027C145.483 3.13361 145.403 3.07361 145.31 3.02027C145.23 2.96694 145.083 2.92694 144.87 2.90027C144.67 2.86027 144.35 2.82694 143.91 2.80027C143.537 2.84027 143.21 2.86027 142.93 2.86027C142.65 2.86027 142.51 2.89361 142.51 2.96027L141.33 3.02027L140.35 3.12027C140.217 3.13361 140.03 3.15361 139.79 3.18027C139.55 3.19361 139.317 3.21361 139.09 3.24027C138.863 3.25361 138.69 3.27361 138.57 3.30027Z" fill="#EB0029"/>
<path d="M145.641 13.2403C145.548 13.2536 145.441 13.2203 145.321 13.1403C145.214 13.0469 145.114 12.9669 145.021 12.9003C144.888 12.7403 144.794 12.6003 144.741 12.4803C144.688 12.3603 144.661 12.2269 144.661 12.0803C144.661 11.9336 144.674 11.7603 144.701 11.5603C144.768 11.3469 144.848 11.0603 144.941 10.7003C145.034 10.3403 145.148 9.95361 145.281 9.54027C145.308 9.38027 145.354 9.19361 145.421 8.98027C145.501 8.75361 145.581 8.54027 145.661 8.34027C145.741 8.12694 145.801 7.96694 145.841 7.86027C145.934 7.52694 146.028 7.20694 146.121 6.90027C146.228 6.59361 146.354 6.24027 146.501 5.84027C146.648 5.44027 146.828 4.93361 147.041 4.32027C147.334 3.52027 147.554 2.92027 147.701 2.52027C147.848 2.12027 147.954 1.83361 148.021 1.66027C148.088 1.48694 148.134 1.34694 148.161 1.24027C148.161 1.13361 148.234 1.03361 148.381 0.940273C148.541 0.833606 148.681 0.780273 148.801 0.780273C148.988 0.793607 149.168 0.90694 149.341 1.12027C149.514 1.32027 149.634 1.56694 149.701 1.86027C149.768 2.14027 149.721 2.41361 149.561 2.68027C149.348 3.16027 149.134 3.70027 148.921 4.30027C148.721 4.88694 148.521 5.47361 148.321 6.06027C148.121 6.64694 147.921 7.18694 147.721 7.68027C147.708 7.74694 147.661 7.86027 147.581 8.02027C147.514 8.18027 147.454 8.31361 147.401 8.42027C147.348 8.52694 147.294 8.62694 147.241 8.72027C147.201 8.81361 147.181 8.86027 147.181 8.86027C147.168 8.94027 147.141 9.05361 147.101 9.20027C147.061 9.34694 147.021 9.47361 146.981 9.58027C146.968 9.64694 146.948 9.73361 146.921 9.84027C146.894 9.94694 146.874 10.0536 146.861 10.1603C146.928 10.0803 147.021 9.98694 147.141 9.88027C147.261 9.76027 147.414 9.61361 147.601 9.44027C147.814 9.25361 148.001 9.09361 148.161 8.96027C148.321 8.82694 148.481 8.70694 148.641 8.60027C148.788 8.49361 148.921 8.39361 149.041 8.30027C149.174 8.20694 149.241 8.16027 149.241 8.16027C149.268 8.12027 149.294 8.07361 149.321 8.02027C149.361 7.96694 149.401 7.93361 149.441 7.92027C149.468 7.89361 149.514 7.86027 149.581 7.82027C149.648 7.76694 149.714 7.71361 149.781 7.66027C149.901 7.58027 150.028 7.51361 150.161 7.46027C150.294 7.40694 150.434 7.36694 150.581 7.34027C150.728 7.31361 150.868 7.30027 151.001 7.30027C151.161 7.30027 151.328 7.36694 151.501 7.50027C151.674 7.62027 151.834 7.79361 151.981 8.02027C152.114 8.19361 152.194 8.40027 152.221 8.64027C152.261 8.86694 152.268 9.17361 152.241 9.56027C152.241 9.66694 152.208 9.86694 152.141 10.1603C152.088 10.4536 152.048 10.6736 152.021 10.8203L151.841 11.5003H152.001C152.148 11.4469 152.288 11.4403 152.421 11.4803C152.568 11.5203 152.641 11.5403 152.641 11.5403C152.708 11.5803 152.768 11.6269 152.821 11.6803C152.888 11.7336 152.948 11.7736 153.001 11.8003C153.081 11.9069 153.068 12.0603 152.961 12.2603C152.854 12.4603 152.734 12.6003 152.601 12.6803C152.281 12.8936 151.994 13.0269 151.741 13.0803C151.501 13.1336 151.248 13.0869 150.981 12.9403C150.728 12.7669 150.554 12.5603 150.461 12.3203C150.381 12.0803 150.348 11.7536 150.361 11.3403C150.414 10.7536 150.448 10.3336 150.461 10.0803C150.474 9.81361 150.408 9.68027 150.261 9.68027C150.101 9.68027 149.881 9.76027 149.601 9.92027C149.334 10.0669 149.034 10.2736 148.701 10.5403C148.368 10.7936 148.034 11.0803 147.701 11.4003C147.381 11.7069 147.094 12.0203 146.841 12.3403C146.681 12.5403 146.508 12.7403 146.321 12.9403C146.134 13.1269 145.908 13.2269 145.641 13.2403Z" fill="#EB0029"/>
<path d="M157.574 13.6003C157.174 13.8269 156.747 13.9603 156.294 14.0003C155.854 14.0269 155.441 13.9669 155.054 13.8203C154.667 13.6603 154.354 13.4269 154.114 13.1203C153.981 12.9469 153.854 12.6736 153.734 12.3003C153.614 11.9136 153.594 11.3936 153.674 10.7403C153.754 10.1269 153.941 9.50694 154.234 8.88027C154.541 8.25361 154.914 7.70027 155.354 7.22027C155.794 6.74027 156.274 6.41361 156.794 6.24027C156.981 6.17361 157.167 6.12694 157.354 6.10027C157.554 6.06027 157.814 6.05361 158.134 6.08027C158.441 6.12027 158.714 6.20027 158.954 6.32027C159.194 6.42694 159.367 6.54694 159.474 6.68027C159.687 6.89361 159.827 7.10027 159.894 7.30027C159.961 7.50027 159.987 7.69361 159.974 7.88027C159.907 8.30694 159.714 8.76694 159.394 9.26027C159.087 9.75361 158.654 10.1203 158.094 10.3603C157.867 10.4536 157.601 10.5136 157.294 10.5403C156.987 10.5669 156.567 10.5269 156.034 10.4203C155.714 10.3536 155.501 10.3869 155.394 10.5203C155.301 10.6536 155.261 10.9136 155.274 11.3003C155.301 11.5403 155.354 11.7536 155.434 11.9403C155.527 12.1136 155.694 12.2336 155.934 12.3003C156.241 12.3536 156.461 12.3603 156.594 12.3203C156.727 12.2669 156.894 12.1936 157.094 12.1003C157.201 12.0336 157.301 11.9603 157.394 11.8803C157.501 11.8003 157.601 11.7203 157.694 11.6403C157.801 11.5603 157.887 11.5003 157.954 11.4603C158.021 11.4069 158.087 11.3736 158.154 11.3603C158.221 11.3469 158.287 11.3403 158.354 11.3403C158.501 11.3536 158.641 11.4336 158.774 11.5803C158.907 11.7269 158.994 11.8669 159.034 12.0003C159.034 12.1069 158.967 12.2603 158.834 12.4603C158.701 12.6469 158.521 12.8469 158.294 13.0603C158.081 13.2603 157.841 13.4403 157.574 13.6003ZM157.314 9.14027C157.407 9.10027 157.541 9.00694 157.714 8.86027C157.901 8.71361 158.067 8.56027 158.214 8.40027C158.361 8.22694 158.434 8.09361 158.434 8.00027C158.434 7.85361 158.334 7.72694 158.134 7.62027C157.947 7.51361 157.701 7.49361 157.394 7.56027C157.287 7.58694 157.161 7.66027 157.014 7.78027C156.867 7.90027 156.721 8.04027 156.574 8.20027C156.427 8.34694 156.301 8.49361 156.194 8.64027C156.087 8.77361 156.014 8.88027 155.974 8.96027C156.027 9.02694 156.134 9.08027 156.294 9.12027C156.454 9.16027 156.627 9.18027 156.814 9.18027C157.014 9.18027 157.181 9.16694 157.314 9.14027Z" fill="#EB0029"/>
<path d="M166.174 13.9203C165.974 13.9203 165.78 13.8603 165.594 13.7403C165.407 13.6069 165.254 13.4269 165.134 13.2003C165.014 12.9603 164.954 12.6803 164.954 12.3603C164.954 12.1603 164.987 11.8803 165.054 11.5203C165.134 11.1469 165.247 10.6803 165.394 10.1203C165.42 9.93361 165.44 9.81361 165.454 9.76027C165.48 9.70694 165.494 9.65361 165.494 9.60027C165.494 9.57361 165.487 9.55361 165.474 9.54027C165.474 9.51361 165.46 9.50027 165.434 9.50027C165.327 9.50027 165.18 9.57361 164.994 9.72027C164.82 9.85361 164.62 10.0136 164.394 10.2003C164.354 10.2269 164.307 10.2603 164.254 10.3003C164.214 10.3403 164.167 10.3803 164.114 10.4203C164.074 10.4603 164.027 10.5003 163.974 10.5403C163.84 10.6203 163.634 10.7736 163.354 11.0003C163.087 11.2269 162.807 11.4669 162.514 11.7203C162.234 11.9736 161.987 12.1869 161.774 12.3603C161.667 12.4403 161.574 12.5069 161.494 12.5603C161.427 12.6136 161.38 12.6403 161.354 12.6403C161.327 12.6403 161.22 12.6069 161.034 12.5403C160.86 12.4603 160.687 12.3536 160.514 12.2203C160.354 12.0736 160.274 11.9069 160.274 11.7203C160.274 11.6003 160.32 11.3603 160.414 11.0003C160.52 10.6403 160.667 10.2136 160.854 9.72027C161.04 9.22694 161.254 8.72694 161.494 8.22027C161.547 8.10027 161.587 7.94027 161.614 7.74027C161.64 7.54027 161.667 7.34694 161.694 7.16027C161.734 6.96027 161.8 6.81361 161.894 6.72027C161.934 6.65361 161.98 6.60694 162.034 6.58027C162.1 6.54027 162.167 6.52027 162.234 6.52027C162.367 6.52027 162.494 6.55361 162.614 6.62027C162.734 6.67361 162.847 6.76694 162.954 6.90027C163.154 7.11361 163.26 7.36694 163.274 7.66027C163.3 7.94027 163.28 8.21361 163.214 8.48027C163.147 8.74694 163.074 8.96694 162.994 9.14027C162.914 9.30027 162.874 9.36694 162.874 9.34027C162.927 9.31361 163 9.24694 163.094 9.14027C163.2 9.03361 163.38 8.90694 163.634 8.76027C163.98 8.49361 164.247 8.30694 164.434 8.20027C164.62 8.08027 164.76 7.99361 164.854 7.94027C164.96 7.88694 165.054 7.82694 165.134 7.76027C165.2 7.70694 165.247 7.67361 165.274 7.66027C165.314 7.64694 165.334 7.64027 165.334 7.64027C165.374 7.64027 165.44 7.61361 165.534 7.56027C165.64 7.50694 165.74 7.48027 165.834 7.48027C165.967 7.48027 166.107 7.51361 166.254 7.58027C166.4 7.63361 166.527 7.71361 166.634 7.82027C166.74 7.91361 166.794 8.01361 166.794 8.12027C166.794 8.16027 166.807 8.19361 166.834 8.22027C166.86 8.24694 166.887 8.28027 166.914 8.32027C166.98 8.40027 167.054 8.51361 167.134 8.66027C167.227 8.79361 167.274 9.01361 167.274 9.32027C167.274 9.53361 167.227 9.84694 167.134 10.2603C167.04 10.6736 166.94 11.0803 166.834 11.4803C166.727 11.8936 166.674 12.2269 166.674 12.4803C166.687 12.7203 166.714 12.9069 166.754 13.0403C166.794 13.1603 166.814 13.2603 166.814 13.3403C166.814 13.4469 166.76 13.5736 166.654 13.7203C166.547 13.8536 166.387 13.9203 166.174 13.9203Z" fill="#EB0029"/>
<path d="M171.757 18.8603C171.664 18.8203 171.517 18.7203 171.317 18.5603C171.131 18.4003 170.957 18.2269 170.797 18.0403C170.651 17.8669 170.577 17.7403 170.577 17.6603C170.577 17.5803 170.611 17.3669 170.677 17.0203C170.744 16.6869 170.831 16.2736 170.937 15.7803C171.057 15.3003 171.184 14.8069 171.317 14.3003C171.464 13.8069 171.611 13.3669 171.757 12.9803C171.784 12.9136 171.871 12.6936 172.017 12.3203C172.177 11.9336 172.331 11.4669 172.477 10.9203C172.584 10.5736 172.724 10.1803 172.897 9.74027C173.071 9.30027 173.251 8.86027 173.437 8.42027C173.624 7.96694 173.777 7.56694 173.897 7.22027C174.017 6.87361 174.151 6.52694 174.297 6.18027C174.444 5.82027 174.524 5.61361 174.537 5.56027C174.564 5.48027 174.637 5.41361 174.757 5.36027C174.891 5.29361 175.024 5.24027 175.157 5.20027C175.291 5.14694 175.377 5.11361 175.417 5.10027C175.657 5.03361 175.864 5.13361 176.037 5.40027C176.104 5.52027 176.117 5.68694 176.077 5.90027C176.051 6.10027 175.984 6.32027 175.877 6.56027L175.737 6.96027L176.457 6.80027C176.577 6.80027 176.744 6.80694 176.957 6.82027C177.171 6.83361 177.377 6.84694 177.577 6.86027C177.791 6.87361 177.937 6.89361 178.017 6.92027C178.337 6.93361 178.557 6.99361 178.677 7.10027C178.811 7.20694 178.924 7.34694 179.017 7.52027C179.084 7.58694 179.164 7.68027 179.257 7.80027C179.351 7.90694 179.404 8.01361 179.417 8.12027C179.471 8.34694 179.451 8.61361 179.357 8.92027C179.277 9.22694 179.151 9.54027 178.977 9.86027C178.817 10.1669 178.624 10.4536 178.397 10.7203C178.184 10.9736 177.977 11.1669 177.777 11.3003C177.644 11.3536 177.524 11.4136 177.417 11.4803C177.311 11.5336 177.257 11.5603 177.257 11.5603C177.244 11.6269 177.104 11.7403 176.837 11.9003C176.584 12.0603 176.284 12.2136 175.937 12.3603C175.604 12.4936 175.304 12.5803 175.037 12.6203C174.944 12.6336 174.811 12.6469 174.637 12.6603C174.464 12.6736 174.331 12.6536 174.237 12.6003C174.091 12.5736 173.991 12.5603 173.937 12.5603C173.884 12.5603 173.857 12.5869 173.857 12.6403C173.844 12.6669 173.751 12.8803 173.577 13.2803C173.404 13.6803 173.224 14.2336 173.037 14.9403C172.784 15.7136 172.577 16.3469 172.417 16.8403C172.257 17.3469 172.131 17.7403 172.037 18.0203C171.957 18.3003 171.897 18.5003 171.857 18.6203C171.817 18.7536 171.784 18.8336 171.757 18.8603ZM174.337 10.8803C174.377 10.9603 174.517 10.9869 174.757 10.9603C174.997 10.9203 175.271 10.8403 175.577 10.7203C175.884 10.6003 176.157 10.4603 176.397 10.3003C176.65 10.1269 176.797 9.94694 176.837 9.76027C177.131 9.42694 177.337 9.18694 177.457 9.04027C177.577 8.88027 177.571 8.75361 177.437 8.66027C177.291 8.44694 177.077 8.34694 176.797 8.36027C176.531 8.37361 176.104 8.54027 175.517 8.86027C175.291 8.94027 175.137 9.01361 175.057 9.08027C174.977 9.13361 174.911 9.22027 174.857 9.34027C174.817 9.46027 174.737 9.65361 174.617 9.92027C174.497 10.2136 174.417 10.4336 174.377 10.5803C174.337 10.7269 174.324 10.8269 174.337 10.8803Z" fill="#EB0029"/>
<path d="M180.996 13.9803C180.676 13.9803 180.396 13.8136 180.156 13.4803C179.929 13.1336 179.789 12.7203 179.736 12.2403C179.749 12.1336 179.762 11.9803 179.776 11.7803C179.802 11.5803 179.829 11.3736 179.856 11.1603C179.909 10.9069 179.982 10.5803 180.076 10.1803C180.169 9.78027 180.269 9.38027 180.376 8.98027C180.482 8.56694 180.576 8.21361 180.656 7.92027C180.736 7.61361 180.782 7.43361 180.796 7.38027C180.876 7.19361 181.056 7.14694 181.336 7.24027C181.616 7.33361 181.856 7.53361 182.056 7.84027C182.136 7.94694 182.182 8.07361 182.196 8.22027C182.222 8.36694 182.202 8.58027 182.136 8.86027C182.082 9.14027 181.976 9.55361 181.816 10.1003C181.669 10.6336 181.556 11.0669 181.476 11.4003C181.409 11.7203 181.382 12.0603 181.396 12.4203C181.342 13.0336 181.289 13.4536 181.236 13.6803C181.182 13.8936 181.102 13.9936 180.996 13.9803ZM182.836 5.68027C182.782 5.72027 182.729 5.74027 182.676 5.74027C182.636 5.72694 182.562 5.68694 182.456 5.62027C182.362 5.60694 182.242 5.54694 182.096 5.44027C181.962 5.32027 181.842 5.20027 181.736 5.08027C181.642 4.96027 181.596 4.88694 181.596 4.86027C181.582 4.72694 181.589 4.51361 181.616 4.22027C181.656 3.92694 181.729 3.65361 181.836 3.40027C181.956 3.13361 182.116 2.99361 182.316 2.98027C182.369 2.98027 182.482 3.00694 182.656 3.06027C182.842 3.11361 183.036 3.18027 183.236 3.26027C183.342 3.46027 183.442 3.72027 183.536 4.04027C183.629 4.36027 183.636 4.67361 183.556 4.98027C183.489 5.27361 183.249 5.50694 182.836 5.68027Z" fill="#EB0029"/>
<path d="M185.322 14.0803C184.935 14.1469 184.548 14.1136 184.162 13.9803C183.788 13.8469 183.475 13.6336 183.222 13.3403C182.982 13.0336 182.862 12.6669 182.862 12.2403C182.822 11.8403 182.855 11.3669 182.962 10.8203C183.082 10.2603 183.255 9.70027 183.482 9.14027C183.722 8.58027 183.995 8.10694 184.302 7.72027C184.568 7.40027 184.835 7.10694 185.102 6.84027C185.368 6.57361 185.608 6.39361 185.822 6.30027C186.008 6.22027 186.235 6.16027 186.502 6.12027C186.782 6.06694 186.975 6.04027 187.082 6.04027C187.295 6.09361 187.528 6.18027 187.782 6.30027C188.048 6.42027 188.182 6.56027 188.182 6.72027C188.182 6.72027 188.195 6.74027 188.222 6.78027C188.262 6.80694 188.282 6.82027 188.282 6.82027C188.362 6.82027 188.448 6.92027 188.542 7.12027C188.648 7.30694 188.728 7.52694 188.782 7.78027C188.835 8.02027 188.822 8.21361 188.742 8.36027C188.688 8.61361 188.582 8.86027 188.422 9.10027C188.275 9.34027 188.148 9.46027 188.042 9.46027C187.988 9.46027 187.935 9.46694 187.882 9.48027C187.842 9.48027 187.822 9.51361 187.822 9.58027C187.822 9.64694 187.748 9.68027 187.602 9.68027C187.468 9.68027 187.328 9.65361 187.182 9.60027C187.035 9.54694 186.942 9.46694 186.902 9.36027C186.902 9.29361 186.915 9.20694 186.942 9.10027C186.968 8.99361 187.008 8.81361 187.062 8.56027C187.142 8.18694 187.148 7.94027 187.082 7.82027C187.015 7.68694 186.848 7.67361 186.582 7.78027C186.248 7.96694 185.975 8.18694 185.762 8.44027C185.548 8.68027 185.355 9.02027 185.182 9.46027C185.022 9.90027 184.842 10.5136 184.642 11.3003C184.562 11.6069 184.548 11.8469 184.602 12.0203C184.668 12.1936 184.722 12.2869 184.762 12.3003C184.948 12.3536 185.148 12.3669 185.362 12.3403C185.588 12.3003 185.775 12.2403 185.922 12.1603C186.135 12.0536 186.322 11.9403 186.482 11.8203C186.655 11.6869 186.842 11.5469 187.042 11.4003C187.108 11.3603 187.168 11.2869 187.222 11.1803C187.275 11.0603 187.355 10.9736 187.462 10.9203C187.568 10.7603 187.702 10.6803 187.862 10.6803C188.035 10.6669 188.202 10.6603 188.362 10.6603C188.468 10.6869 188.582 10.7536 188.702 10.8603C188.822 10.9669 188.908 11.0736 188.962 11.1803C189.028 11.2736 189.022 11.3403 188.942 11.3803C188.888 11.3803 188.855 11.4003 188.842 11.4403C188.842 11.4669 188.842 11.4803 188.842 11.4803C188.868 11.5336 188.808 11.6536 188.662 11.8403C188.528 12.0269 188.355 12.2269 188.142 12.4403C187.928 12.6536 187.722 12.8403 187.522 13.0003C187.335 13.1469 187.202 13.2203 187.122 13.2203C186.988 13.2203 186.922 13.2603 186.922 13.3403C186.922 13.3669 186.822 13.4336 186.622 13.5403C186.435 13.6469 186.215 13.7536 185.962 13.8603C185.722 13.9669 185.508 14.0403 185.322 14.0803Z" fill="#EB0029"/>
<path d="M190.107 13.8603C189.907 13.7936 189.727 13.6869 189.567 13.5403C189.42 13.3936 189.36 13.1536 189.387 12.8203C189.413 12.6203 189.453 12.4136 189.507 12.2003C189.56 11.9736 189.627 11.7536 189.707 11.5403C189.747 11.3003 189.793 11.0603 189.847 10.8203C189.913 10.5803 190.02 10.3536 190.167 10.1403C190.34 9.64694 190.52 9.16027 190.707 8.68027C190.893 8.18694 191.053 7.67361 191.187 7.14027C191.387 6.66027 191.567 6.23361 191.727 5.86027C191.9 5.48694 192.107 5.00694 192.347 4.42027C192.48 4.11361 192.593 3.77361 192.687 3.40027C192.793 3.01361 192.953 2.67361 193.167 2.38027C193.26 2.26027 193.327 2.16027 193.367 2.08027C193.42 1.98694 193.473 1.90027 193.527 1.82027C193.62 1.63361 193.76 1.54694 193.947 1.56027C194.147 1.57361 194.28 1.62694 194.347 1.72027C194.573 1.81361 194.733 1.98694 194.827 2.24027C194.92 2.48027 194.953 2.65361 194.927 2.76027C194.927 2.90694 194.873 3.06694 194.767 3.24027C194.713 3.29361 194.66 3.37361 194.607 3.48027C194.553 3.57361 194.473 3.70027 194.367 3.86027C194.313 4.03361 194.26 4.20694 194.207 4.38027C194.153 4.55361 194.093 4.71361 194.027 4.86027C193.96 5.00694 193.887 5.15361 193.807 5.30027C193.727 5.44694 193.673 5.56694 193.647 5.66027C193.527 5.96694 193.393 6.26694 193.247 6.56027C193.113 6.84027 192.993 7.14027 192.887 7.46027C192.78 7.76694 192.667 8.09361 192.547 8.44027C192.427 8.77361 192.273 9.09361 192.087 9.40027C191.993 9.53361 191.94 9.71361 191.927 9.94027C191.927 10.1669 191.9 10.3869 191.847 10.6003C191.753 10.8403 191.667 11.0603 191.587 11.2603C191.52 11.4603 191.487 11.5869 191.487 11.6403C191.393 11.9336 191.32 12.2269 191.267 12.5203C191.213 12.8003 191.127 13.0469 191.007 13.2603C191.007 13.5803 190.92 13.7803 190.747 13.8603C190.573 13.9403 190.36 13.9403 190.107 13.8603ZM194.687 14.0403C194.473 14.0136 194.313 13.9736 194.207 13.9203C194.1 13.8536 193.9 13.7136 193.607 13.5003C193.447 13.3403 193.247 13.0936 193.007 12.7603C192.767 12.4269 192.527 12.0736 192.287 11.7003C192.047 11.3136 191.833 10.9869 191.647 10.7203L192.747 9.32027C192.92 9.53361 193.06 9.73361 193.167 9.92027C193.273 10.1069 193.36 10.2336 193.427 10.3003C193.733 10.7536 193.973 11.1203 194.147 11.4003C194.32 11.6803 194.467 11.9069 194.587 12.0803C194.72 12.2536 194.867 12.4069 195.027 12.5403C195.187 12.6736 195.393 12.8136 195.647 12.9603C195.687 12.9869 195.727 13.0536 195.767 13.1603C195.807 13.2536 195.82 13.3536 195.807 13.4603C195.78 13.6203 195.68 13.7536 195.507 13.8603C195.347 13.9536 195.073 14.0136 194.687 14.0403ZM191.787 10.3403C191.707 10.1136 191.687 9.86027 191.727 9.58027C191.78 9.28694 191.893 9.09361 192.067 9.00027C192.12 8.90694 192.173 8.84694 192.227 8.82027C192.293 8.78027 192.333 8.73361 192.347 8.68027C192.373 8.62694 192.44 8.55361 192.547 8.46027C192.667 8.36694 192.773 8.28027 192.867 8.20027C193.08 8.06694 193.313 7.90694 193.567 7.72027C193.833 7.52027 194.087 7.32027 194.327 7.12027C194.58 6.92027 194.787 6.74694 194.947 6.60027C195.12 6.45361 195.227 6.36027 195.267 6.32027C195.307 6.26694 195.387 6.23361 195.507 6.22027C195.64 6.20694 195.767 6.22694 195.887 6.28027C196.047 6.32027 196.173 6.40694 196.267 6.54027C196.373 6.67361 196.427 6.86027 196.427 7.10027C196.467 7.24694 196.38 7.42694 196.167 7.64027C195.967 7.84027 195.713 8.04027 195.407 8.24027C195.3 8.30694 195.153 8.40694 194.967 8.54027C194.793 8.67361 194.64 8.80027 194.507 8.92027C194.413 8.97361 194.273 9.06694 194.087 9.20027C193.913 9.32027 193.76 9.44027 193.627 9.56027C193.52 9.62694 193.393 9.74694 193.247 9.92027C193.113 10.0803 192.96 10.2003 192.787 10.2803C192.36 10.6803 192.1 10.8736 192.007 10.8603C191.927 10.8469 191.853 10.6736 191.787 10.3403Z" fill="#EB0029"/>
<path d="M201.891 13.6403C201.731 13.6803 201.551 13.6336 201.351 13.5003C201.151 13.3669 200.971 13.2003 200.811 13.0003C200.651 12.8003 200.551 12.6203 200.511 12.4603C200.458 12.1803 200.471 11.8403 200.551 11.4403C200.644 11.0269 200.798 10.5936 201.011 10.1403C201.224 9.67361 201.491 9.22027 201.811 8.78027C202.131 8.32694 202.491 7.92027 202.891 7.56027C203.291 7.20027 203.724 6.92027 204.191 6.72027C204.391 6.61361 204.531 6.54694 204.611 6.52027C204.691 6.48027 204.771 6.48027 204.851 6.52027C204.931 6.54694 205.071 6.61361 205.271 6.72027C205.458 6.77361 205.644 6.84027 205.831 6.92027C206.031 6.98694 206.204 7.12027 206.351 7.32027C206.458 7.52027 206.538 7.72027 206.591 7.92027C206.644 8.12027 206.691 8.34694 206.731 8.60027C206.838 8.93361 206.878 9.15361 206.851 9.26027C206.824 9.35361 206.784 9.42694 206.731 9.48027C206.624 9.61361 206.598 9.68027 206.651 9.68027C206.651 9.68027 206.644 9.70694 206.631 9.76027C206.631 9.80027 206.604 9.86694 206.551 9.96027C206.458 10.2536 206.384 10.5336 206.331 10.8003C206.291 11.0536 206.298 11.2803 206.351 11.4803C206.458 11.7736 206.598 11.9469 206.771 12.0003C206.958 12.0536 207.198 11.9336 207.491 11.6403C207.638 11.5336 207.804 11.4669 207.991 11.4403C208.178 11.4003 208.271 11.4336 208.271 11.5403C208.271 11.5403 208.291 11.5603 208.331 11.6003C208.371 11.6269 208.418 11.6403 208.471 11.6403C208.538 11.6403 208.564 11.7069 208.551 11.8403C208.538 11.9603 208.511 12.1003 208.471 12.2603C208.431 12.4203 208.378 12.5536 208.311 12.6603C208.111 12.8603 208.011 12.9936 208.011 13.0603C208.011 13.0603 207.984 13.0869 207.931 13.1403C207.891 13.1803 207.818 13.2469 207.711 13.3403C207.471 13.4869 207.164 13.5603 206.791 13.5603C206.431 13.5603 206.151 13.4869 205.951 13.3403C205.751 13.1936 205.551 13.0136 205.351 12.8003C205.164 12.5869 205.044 12.3869 204.991 12.2003L204.891 12.0003L204.311 12.3803C204.164 12.5269 204.058 12.6403 203.991 12.7203C203.924 12.7869 203.864 12.8469 203.811 12.9003C203.771 12.9536 203.724 13.0003 203.671 13.0403C203.631 13.0803 203.584 13.1003 203.531 13.1003C203.478 13.1003 203.431 13.1003 203.391 13.1003C203.351 13.1003 203.331 13.1003 203.331 13.1003C203.331 13.1536 203.238 13.2269 203.051 13.3203C202.864 13.4003 202.658 13.4736 202.431 13.5403C202.204 13.6069 202.024 13.6403 201.891 13.6403ZM202.311 11.9603C202.391 11.9603 202.511 11.9136 202.671 11.8203C202.844 11.7136 203.031 11.5869 203.231 11.4403C203.431 11.2936 203.611 11.1469 203.771 11.0003C203.944 10.8536 204.071 10.7336 204.151 10.6403C204.204 10.5869 204.264 10.5003 204.331 10.3803C204.411 10.2603 204.498 10.1536 204.591 10.0603C204.898 9.71361 205.091 9.44027 205.171 9.24027C205.251 9.02694 205.218 8.80027 205.071 8.56027C205.018 8.41361 204.951 8.33361 204.871 8.32027C204.791 8.30694 204.624 8.35361 204.371 8.46027C204.211 8.55361 204.038 8.70694 203.851 8.92027C203.664 9.13361 203.471 9.37361 203.271 9.64027C203.084 9.90694 202.911 10.1803 202.751 10.4603C202.591 10.7403 202.458 10.9936 202.351 11.2203C202.258 11.4469 202.211 11.6269 202.211 11.7603C202.211 11.8136 202.224 11.8603 202.251 11.9003C202.291 11.9403 202.311 11.9603 202.311 11.9603Z" fill="#EB0029"/>
<path d="M127.668 29.5203C127.574 29.4936 127.428 29.4069 127.228 29.2603C127.028 29.1136 126.848 28.8936 126.688 28.6003C126.541 28.3069 126.474 27.9269 126.488 27.4603C126.501 27.0603 126.528 26.7803 126.568 26.6203C126.621 26.4469 126.601 26.3536 126.508 26.3403C126.441 26.3269 126.308 26.3869 126.108 26.5203C125.908 26.6536 125.648 26.8669 125.328 27.1603C125.008 27.4536 124.621 27.8403 124.168 28.3203C124.008 28.4536 123.828 28.6203 123.628 28.8203C123.441 29.0069 123.248 29.1469 123.048 29.2403C122.861 29.3336 122.694 29.3136 122.548 29.1803L122.348 29.0003C122.254 28.9203 122.174 28.8136 122.108 28.6803C122.041 28.5469 122.021 28.4336 122.048 28.3403L122.608 26.7803C122.768 26.4336 122.874 26.1803 122.928 26.0203C122.994 25.8603 123.021 25.7603 123.008 25.7203C123.008 25.6803 122.974 25.6669 122.908 25.6803C122.828 25.6936 122.714 25.7669 122.568 25.9003C122.421 26.0203 122.321 26.1203 122.268 26.2003C122.214 26.2003 122.141 26.2536 122.048 26.3603C121.968 26.4669 121.888 26.5603 121.808 26.6403C121.728 26.7203 121.588 26.8736 121.388 27.1003C121.188 27.3136 120.974 27.5403 120.748 27.7803C120.574 27.9403 120.374 28.1536 120.148 28.4203C119.921 28.6869 119.721 28.9269 119.548 29.1403C119.374 29.3536 119.268 29.4603 119.228 29.4603C118.988 29.4469 118.768 29.3669 118.568 29.2203C118.381 29.0736 118.254 28.8936 118.188 28.6803C118.108 28.5336 118.101 28.2669 118.168 27.8803C118.234 27.4803 118.361 26.8469 118.548 25.9803C118.601 25.7803 118.648 25.6069 118.688 25.4603C118.741 25.3136 118.794 25.1669 118.848 25.0203C118.901 24.8736 118.961 24.7069 119.028 24.5203C119.108 24.3336 119.208 24.1069 119.328 23.8403C119.394 23.6536 119.421 23.4803 119.408 23.3203C119.394 23.1469 119.381 23.0069 119.368 22.9003C119.368 22.7003 119.428 22.5403 119.548 22.4203C119.681 22.3003 119.828 22.2203 119.988 22.1803C120.148 22.1269 120.274 22.1136 120.368 22.1403C120.741 22.1803 120.994 22.3136 121.128 22.5403C121.261 22.7669 121.334 22.9869 121.348 23.2003C121.361 23.4003 121.334 23.5803 121.268 23.7403C121.201 23.9003 121.148 24.0336 121.108 24.1403L120.888 24.6803C120.754 24.9869 120.654 25.2136 120.588 25.3603C120.534 25.4936 120.501 25.5869 120.488 25.6403C120.488 25.6803 120.488 25.7203 120.488 25.7603C120.501 25.8003 120.561 25.7803 120.668 25.7003C120.774 25.6203 120.901 25.5136 121.048 25.3803C121.208 25.2336 121.354 25.1069 121.488 25.0003C121.728 24.8003 121.981 24.6003 122.248 24.4003C122.528 24.1869 122.801 24.0003 123.068 23.8403C123.334 23.6803 123.554 23.5736 123.728 23.5203C123.954 23.5603 124.161 23.6736 124.348 23.8603C124.548 24.0469 124.674 24.2069 124.728 24.3403C124.794 24.5403 124.801 24.7203 124.748 24.8803C124.708 25.0403 124.674 25.1869 124.648 25.3203C124.634 25.3736 124.608 25.4736 124.568 25.6203C124.528 25.7669 124.488 25.9069 124.448 26.0403C124.408 26.1603 124.388 26.2203 124.388 26.2203C124.388 26.2203 124.428 26.1803 124.508 26.1003C124.588 26.0203 124.694 25.9269 124.828 25.8203C124.961 25.7003 125.094 25.5936 125.228 25.5003C125.894 24.9936 126.421 24.6736 126.808 24.5403C127.208 24.3936 127.548 24.5069 127.828 24.8803C127.988 25.0269 128.088 25.2269 128.128 25.4803C128.181 25.7336 128.208 26.0736 128.208 26.5003C128.221 26.6736 128.234 26.8669 128.248 27.0803C128.274 27.2936 128.301 27.4803 128.328 27.6403C128.368 27.8003 128.401 27.9003 128.428 27.9403C128.468 27.9936 128.541 28.0469 128.648 28.1003C128.754 28.1403 128.854 28.1736 128.948 28.2003C129.134 28.2936 129.234 28.4669 129.248 28.7203C129.274 28.9603 129.181 29.1469 128.968 29.2803C128.768 29.4003 128.554 29.4736 128.328 29.5003C128.114 29.5269 127.894 29.5336 127.668 29.5203Z" fill="#EB0029"/>
<path d="M132.994 29.6003C132.594 29.8269 132.168 29.9603 131.714 30.0003C131.274 30.0269 130.861 29.9669 130.474 29.8203C130.088 29.6603 129.774 29.4269 129.534 29.1203C129.401 28.9469 129.274 28.6736 129.154 28.3003C129.034 27.9136 129.014 27.3936 129.094 26.7403C129.174 26.1269 129.361 25.5069 129.654 24.8803C129.961 24.2536 130.334 23.7003 130.774 23.2203C131.214 22.7403 131.694 22.4136 132.214 22.2403C132.401 22.1736 132.588 22.1269 132.774 22.1003C132.974 22.0603 133.234 22.0536 133.554 22.0803C133.861 22.1203 134.134 22.2003 134.374 22.3203C134.614 22.4269 134.788 22.5469 134.894 22.6803C135.108 22.8936 135.248 23.1003 135.314 23.3003C135.381 23.5003 135.408 23.6936 135.394 23.8803C135.328 24.3069 135.134 24.7669 134.814 25.2603C134.508 25.7536 134.074 26.1203 133.514 26.3603C133.288 26.4536 133.021 26.5136 132.714 26.5403C132.408 26.5669 131.988 26.5269 131.454 26.4203C131.134 26.3536 130.921 26.3869 130.814 26.5203C130.721 26.6536 130.681 26.9136 130.694 27.3003C130.721 27.5403 130.774 27.7536 130.854 27.9403C130.948 28.1136 131.114 28.2336 131.354 28.3003C131.661 28.3536 131.881 28.3603 132.014 28.3203C132.148 28.2669 132.314 28.1936 132.514 28.1003C132.621 28.0336 132.721 27.9603 132.814 27.8803C132.921 27.8003 133.021 27.7203 133.114 27.6403C133.221 27.5603 133.308 27.5003 133.374 27.4603C133.441 27.4069 133.508 27.3736 133.574 27.3603C133.641 27.3469 133.708 27.3403 133.774 27.3403C133.921 27.3536 134.061 27.4336 134.194 27.5803C134.328 27.7269 134.414 27.8669 134.454 28.0003C134.454 28.1069 134.388 28.2603 134.254 28.4603C134.121 28.6469 133.941 28.8469 133.714 29.0603C133.501 29.2603 133.261 29.4403 132.994 29.6003ZM132.734 25.1403C132.828 25.1003 132.961 25.0069 133.134 24.8603C133.321 24.7136 133.488 24.5603 133.634 24.4003C133.781 24.2269 133.854 24.0936 133.854 24.0003C133.854 23.8536 133.754 23.7269 133.554 23.6203C133.368 23.5136 133.121 23.4936 132.814 23.5603C132.708 23.5869 132.581 23.6603 132.434 23.7803C132.288 23.9003 132.141 24.0403 131.994 24.2003C131.848 24.3469 131.721 24.4936 131.614 24.6403C131.508 24.7736 131.434 24.8803 131.394 24.9603C131.448 25.0269 131.554 25.0803 131.714 25.1203C131.874 25.1603 132.048 25.1803 132.234 25.1803C132.434 25.1803 132.601 25.1669 132.734 25.1403Z" fill="#EB0029"/>
<path d="M135.774 29.2603C135.734 29.2069 135.647 29.1403 135.514 29.0603C135.381 28.9803 135.314 28.9136 135.314 28.8603C135.314 28.8336 135.307 28.8003 135.294 28.7603C135.294 28.7203 135.267 28.7003 135.214 28.7003C135.174 28.6603 135.194 28.5136 135.274 28.2603C135.367 28.0069 135.487 27.7069 135.634 27.3603C135.794 27.0136 135.961 26.6803 136.134 26.3603C136.307 26.0269 136.454 25.7603 136.574 25.5603C136.641 25.5203 136.681 25.4669 136.694 25.4003C136.721 25.3203 136.721 25.2803 136.694 25.2803C136.694 25.2803 136.727 25.2203 136.794 25.1003C136.874 24.9669 136.934 24.8803 136.974 24.8403C137.081 24.6536 137.161 24.4669 137.214 24.2803C137.267 24.0803 137.281 23.9136 137.254 23.7803C137.201 23.7136 137.141 23.6936 137.074 23.7203C137.007 23.7469 136.974 23.7603 136.974 23.7603C136.921 23.7736 136.841 23.8003 136.734 23.8403C136.641 23.8669 136.554 23.9069 136.474 23.9603C136.167 24.1736 135.941 24.2803 135.794 24.2803C135.661 24.2803 135.527 24.1203 135.394 23.8003C135.341 23.6536 135.321 23.5136 135.334 23.3803C135.347 23.2469 135.401 23.1403 135.494 23.0603C135.601 22.9669 135.734 22.8736 135.894 22.7803C136.054 22.6736 136.161 22.6003 136.214 22.5603C136.361 22.4669 136.567 22.3669 136.834 22.2603C137.101 22.1536 137.261 22.0936 137.314 22.0803C137.661 21.9736 137.954 21.9736 138.194 22.0803C138.434 22.1736 138.614 22.3603 138.734 22.6403C138.921 22.8669 139.014 23.1069 139.014 23.3603C139.014 23.6136 138.921 23.9269 138.734 24.3003L138.534 24.6003C138.467 24.7336 138.454 24.8003 138.494 24.8003C138.547 24.8003 138.607 24.7536 138.674 24.6603C138.714 24.6069 138.794 24.5269 138.914 24.4203C139.034 24.3136 139.114 24.2603 139.154 24.2603C139.154 24.2603 139.167 24.2536 139.194 24.2403C139.234 24.2269 139.254 24.1736 139.254 24.0803C139.294 24.0403 139.334 24.0003 139.374 23.9603C139.427 23.9203 139.454 23.9003 139.454 23.9003C139.507 23.9003 139.574 23.8736 139.654 23.8203C139.747 23.7536 139.901 23.6336 140.114 23.4603C140.261 23.3536 140.394 23.3003 140.514 23.3003C140.821 23.2069 141.067 23.3069 141.254 23.6003C141.454 23.8936 141.554 24.2736 141.554 24.7403L141.134 25.8203L141.854 24.9403C141.934 24.8336 142.014 24.7403 142.094 24.6603C142.187 24.5803 142.267 24.5136 142.334 24.4603C142.361 24.3669 142.401 24.3136 142.454 24.3003C142.507 24.2869 142.534 24.2803 142.534 24.2803C142.534 24.2803 142.547 24.2803 142.574 24.2803C142.601 24.2669 142.614 24.2403 142.614 24.2003C142.681 24.1469 142.754 24.1003 142.834 24.0603C142.914 24.0069 142.967 23.9536 142.994 23.9003C143.221 23.8069 143.494 23.7936 143.814 23.8603C144.134 23.9136 144.361 24.0803 144.494 24.3603C144.587 24.5203 144.674 24.6603 144.754 24.7803C144.834 24.9003 144.874 25.0803 144.874 25.3203C144.847 25.5203 144.821 25.6603 144.794 25.7403C144.781 25.8203 144.767 25.9069 144.754 26.0003C144.741 26.0803 144.721 26.2269 144.694 26.4403C144.641 26.5469 144.607 26.6603 144.594 26.7803C144.594 26.9003 144.594 27.0136 144.594 27.1203C144.594 27.2936 144.601 27.4136 144.614 27.4803C144.627 27.5336 144.681 27.5603 144.774 27.5603C144.961 27.5203 145.114 27.4603 145.234 27.3803C145.367 27.2869 145.514 27.1669 145.674 27.0203C145.874 26.8336 146.047 26.8069 146.194 26.9403C146.354 27.0603 146.454 27.2003 146.494 27.3603C146.521 27.4136 146.494 27.5336 146.414 27.7203C146.334 27.9069 146.241 28.0869 146.134 28.2603C146.027 28.4336 145.941 28.5203 145.874 28.5203C145.834 28.5203 145.754 28.5736 145.634 28.6803C145.514 28.7869 145.421 28.8603 145.354 28.9003C145.261 28.9936 145.167 29.0803 145.074 29.1603C144.994 29.2403 144.901 29.2803 144.794 29.2803C144.741 29.2803 144.674 29.3003 144.594 29.3403C144.527 29.3669 144.447 29.3803 144.354 29.3803C144.221 29.4203 144.014 29.4003 143.734 29.3203C143.467 29.2403 143.294 29.0536 143.214 28.7603C143.161 28.6136 143.081 28.4269 142.974 28.2003C142.881 27.9736 142.861 27.6936 142.914 27.3603C142.967 27.1203 143.001 26.9003 143.014 26.7003C143.027 26.5003 143.054 26.3603 143.094 26.2803C143.094 26.2403 143.094 26.1469 143.094 26.0003C143.094 25.8403 143.074 25.7603 143.034 25.7603C142.981 25.7603 142.881 25.8269 142.734 25.9603C142.587 26.0936 142.414 26.2736 142.214 26.5003C142.014 26.7136 141.807 26.9469 141.594 27.2003C141.394 27.4536 141.214 27.7069 141.054 27.9603C140.934 28.1069 140.827 28.2869 140.734 28.5003C140.641 28.7136 140.574 28.8336 140.534 28.8603C140.441 28.9669 140.281 28.9803 140.054 28.9003C139.841 28.8203 139.681 28.6936 139.574 28.5203C139.534 28.4403 139.487 28.3936 139.434 28.3803C139.381 28.3536 139.334 28.3136 139.294 28.2603C139.267 28.1936 139.267 28.0669 139.294 27.8803C139.334 27.6936 139.421 27.3936 139.554 26.9803C139.701 26.5269 139.827 26.1203 139.934 25.7603C140.054 25.3869 140.114 25.2003 140.114 25.2003C140.114 25.1469 140.014 25.2003 139.814 25.3603C139.614 25.5069 139.381 25.6936 139.114 25.9203C138.994 26.0669 138.834 26.2536 138.634 26.4803C138.447 26.7069 138.227 26.9736 137.974 27.2803C137.734 27.5869 137.461 27.9469 137.154 28.3603C136.767 28.9069 136.474 29.2403 136.274 29.3603C136.087 29.4803 135.921 29.4469 135.774 29.2603Z" fill="#EB0029"/>
<path d="M147.94 28.9803C147.94 28.8736 147.927 28.7736 147.9 28.6803C147.873 28.5869 147.887 28.5136 147.94 28.4603L148.1 28.5003C148.047 28.5136 147.94 28.5203 147.78 28.5203C147.633 28.5069 147.493 28.4869 147.36 28.4603C147.24 28.4203 147.173 28.3869 147.16 28.3603C147.173 28.1336 147.187 27.9603 147.2 27.8403C147.227 27.7203 147.26 27.6203 147.3 27.5403C147.3 27.4203 147.34 27.2669 147.42 27.0803C147.5 26.8936 147.567 26.7003 147.62 26.5003C147.673 26.2736 147.74 25.9336 147.82 25.4803C147.913 25.0269 148.047 24.5936 148.22 24.1803C148.327 23.8336 148.46 23.4003 148.62 22.8803C148.78 22.3469 148.933 21.9069 149.08 21.5603C149.24 20.9469 149.387 20.4536 149.52 20.0803C149.667 19.6936 149.813 19.3469 149.96 19.0403C150.12 18.7203 150.293 18.3603 150.48 17.9603C150.533 17.8536 150.587 17.7203 150.64 17.5603C150.693 17.3869 150.74 17.2403 150.78 17.1203C150.9 16.9069 151.067 16.7736 151.28 16.7203C151.507 16.6669 151.7 16.7203 151.86 16.8803C152.007 17.0269 152.12 17.1603 152.2 17.2803C152.28 17.3869 152.3 17.5669 152.26 17.8203C152.233 18.0603 152.107 18.4603 151.88 19.0203C151.787 19.1536 151.68 19.3803 151.56 19.7003C151.453 20.0069 151.353 20.2803 151.26 20.5203C151.06 20.9869 150.9 21.3869 150.78 21.7203C150.66 22.0536 150.547 22.3936 150.44 22.7403C150.347 23.1136 150.227 23.4803 150.08 23.8403C149.933 24.1869 149.793 24.5669 149.66 24.9803L149.34 25.0803C149.433 24.9603 149.547 24.8203 149.68 24.6603C149.827 24.5003 149.96 24.3536 150.08 24.2203C150.213 24.0869 150.3 24.0003 150.34 23.9603C150.7 23.6536 151.1 23.3869 151.54 23.1603C151.98 22.9336 152.393 22.7736 152.78 22.6803C153.18 22.5736 153.48 22.5603 153.68 22.6403C153.92 22.7203 154.153 22.8936 154.38 23.1603C154.607 23.4136 154.76 23.7336 154.84 24.1203C154.947 24.3336 154.933 24.6136 154.8 24.9603C154.68 25.3069 154.493 25.7136 154.24 26.1803C154.013 26.5936 153.753 26.9936 153.46 27.3803C153.167 27.7536 152.887 28.0669 152.62 28.3203C152.527 28.3736 152.407 28.4669 152.26 28.6003C152.127 28.7203 152.007 28.8403 151.9 28.9603C151.62 29.2136 151.273 29.4003 150.86 29.5203C150.46 29.6269 150.053 29.6803 149.64 29.6803C149.227 29.6669 148.86 29.6003 148.54 29.4803C148.233 29.3603 148.033 29.1936 147.94 28.9803ZM148.54 28.1403C148.607 28.1536 148.673 28.1669 148.74 28.1803C148.807 28.1803 148.88 28.1803 148.96 28.1803C149.253 28.1403 149.487 28.1269 149.66 28.1403C149.847 28.1403 150.027 28.1203 150.2 28.0803C150.387 28.0403 150.6 27.9469 150.84 27.8003C151.187 27.5336 151.473 27.2469 151.7 26.9403C151.94 26.6336 152.187 26.3203 152.44 26.0003C152.667 25.7069 152.847 25.4136 152.98 25.1203C153.113 24.8136 153.18 24.5469 153.18 24.3203C153.18 24.2003 153.147 24.1403 153.08 24.1403C153.053 24.1403 152.933 24.1803 152.72 24.2603C152.507 24.3269 152.287 24.4136 152.06 24.5203C151.847 24.6136 151.707 24.6936 151.64 24.7603C151.64 24.8136 151.6 24.8603 151.52 24.9003C151.44 24.9269 151.4 24.9403 151.4 24.9403C150.987 25.2469 150.68 25.4869 150.48 25.6603C150.293 25.8203 150.12 26.0003 149.96 26.2003C149.867 26.3336 149.793 26.4336 149.74 26.5003C149.687 26.5536 149.64 26.6069 149.6 26.6603C149.56 26.7003 149.5 26.7803 149.42 26.9003C149.34 27.0203 149.22 27.2069 149.06 27.4603C148.967 27.6336 148.873 27.8003 148.78 27.9603C148.687 28.1203 148.607 28.2136 148.54 28.2403V28.1403Z" fill="#EB0029"/>
<path d="M157.167 30.3603C156.434 30.3603 155.867 30.1469 155.467 29.7203C155.08 29.2936 154.887 28.6403 154.887 27.7603C154.887 27.2803 154.974 26.7536 155.147 26.1803C155.334 25.6069 155.574 25.0469 155.867 24.5003C156.174 23.9536 156.507 23.4803 156.867 23.0803C157.227 22.6669 157.587 22.3803 157.947 22.2203C158.08 22.1536 158.22 22.1069 158.367 22.0803C158.527 22.0403 158.68 22.0203 158.827 22.0203C158.987 22.0203 159.16 22.0336 159.347 22.0603C159.547 22.0736 159.734 22.1136 159.907 22.1803C160.214 22.2736 160.48 22.4536 160.707 22.7203C160.947 22.9869 161.067 23.3736 161.067 23.8803C161.067 24.0136 161.054 24.1603 161.027 24.3203C161 24.4669 160.954 24.6136 160.887 24.7603C160.714 25.2003 160.447 25.6203 160.087 26.0203C159.74 26.4203 159.374 26.7003 158.987 26.8603C158.88 26.9136 158.774 26.9536 158.667 26.9803C158.574 26.9936 158.474 27.0003 158.367 27.0003C158.087 27.0003 157.834 26.9603 157.607 26.8803C157.394 26.8003 157.194 26.6936 157.007 26.5603L156.847 26.4203L156.747 26.6203C156.654 26.8736 156.587 27.0869 156.547 27.2603C156.52 27.4336 156.507 27.5603 156.507 27.6403C156.507 27.8003 156.514 27.9669 156.527 28.1403C156.54 28.3003 156.58 28.4336 156.647 28.5403C156.7 28.6069 156.767 28.6603 156.847 28.7003C156.94 28.7403 157.054 28.7603 157.187 28.7603C157.267 28.7603 157.34 28.7603 157.407 28.7603C157.487 28.7469 157.554 28.7336 157.607 28.7203C157.847 28.6669 158.04 28.5803 158.187 28.4603C158.347 28.3269 158.514 28.2136 158.687 28.1203L158.767 28.0803L158.747 28.0203C158.974 27.9003 159.127 27.8269 159.207 27.8003C159.287 27.7603 159.347 27.7269 159.387 27.7003C159.44 27.6469 159.5 27.6203 159.567 27.6203C159.754 27.5936 159.934 27.6469 160.107 27.7803C160.294 27.9003 160.387 28.0536 160.387 28.2403C160.387 28.3203 160.327 28.4469 160.207 28.6203C160.1 28.7936 159.96 28.9669 159.787 29.1403C159.627 29.3003 159.46 29.4269 159.287 29.5203C159.247 29.5336 159.207 29.5536 159.167 29.5803C159.127 29.5936 159.087 29.6136 159.047 29.6403H159.067C158.947 29.8003 158.827 29.8803 158.707 29.8803H158.547C158.494 29.9736 158.32 30.0736 158.027 30.1803C157.734 30.3003 157.447 30.3603 157.167 30.3603ZM158.207 25.5403C158.327 25.5403 158.434 25.5203 158.527 25.4803C158.634 25.4403 158.734 25.3936 158.827 25.3403C159.147 25.1136 159.354 24.8203 159.447 24.4603C159.54 24.1003 159.507 23.8269 159.347 23.6403C159.32 23.6003 159.287 23.5736 159.247 23.5603C159.207 23.5336 159.16 23.5203 159.107 23.5203C158.96 23.5203 158.794 23.5669 158.607 23.6603C158.434 23.7536 158.26 23.8869 158.087 24.0603C157.914 24.2336 157.754 24.4403 157.607 24.6803L157.347 25.1003C157.374 25.0869 157.394 25.0803 157.407 25.0803C157.434 25.0669 157.454 25.0603 157.467 25.0603C157.587 25.0603 157.667 25.1003 157.707 25.1803C157.747 25.2603 157.794 25.3403 157.847 25.4203C157.914 25.5003 158.034 25.5403 158.207 25.5403Z" fill="#EB0029"/>
<path d="M161.607 29.4603C161.487 29.3669 161.353 29.2469 161.207 29.1003C161.073 28.9536 161.027 28.7469 161.067 28.4803C161.107 28.1069 161.16 27.7803 161.227 27.5003C161.293 27.2069 161.373 26.8736 161.467 26.5003C161.493 26.3403 161.56 26.0669 161.667 25.6803C161.787 25.2936 161.927 24.8736 162.087 24.4203C162.247 23.9669 162.413 23.5403 162.587 23.1403C162.76 22.7269 162.913 22.4203 163.047 22.2203C163.193 22.0869 163.407 22.0203 163.687 22.0203C163.98 22.0203 164.18 22.0736 164.287 22.1803C164.433 22.3003 164.48 22.5136 164.427 22.8203C164.373 23.1136 164.187 23.5736 163.867 24.2003C163.8 24.3603 163.713 24.5336 163.607 24.7203C163.513 24.8936 163.447 25.0403 163.407 25.1603C163.367 25.2669 163.38 25.3136 163.447 25.3003C163.527 25.1536 163.673 24.9869 163.887 24.8003C164.1 24.6003 164.327 24.4069 164.567 24.2203C164.807 24.0336 165.033 23.8669 165.247 23.7203C165.46 23.5736 165.607 23.4803 165.687 23.4403C165.793 23.3736 165.913 23.3203 166.047 23.2803C166.193 23.2269 166.293 23.1869 166.347 23.1603C166.653 23.0136 166.987 22.9603 167.347 23.0003C167.72 23.0269 167.947 23.1403 168.027 23.3403C168.04 23.4469 168.08 23.5269 168.147 23.5803C168.227 23.6336 168.267 23.6603 168.267 23.6603C168.32 23.6603 168.347 23.6803 168.347 23.7203C168.36 23.7603 168.367 23.7803 168.367 23.7803C168.367 23.8736 168.273 24.0069 168.087 24.1803C167.913 24.3536 167.72 24.4469 167.507 24.4603C167.333 24.4736 167.18 24.5069 167.047 24.5603C166.913 24.6136 166.753 24.6803 166.567 24.7603C166.06 25.0536 165.6 25.3136 165.187 25.5403C164.787 25.7669 164.373 26.1136 163.947 26.5803C163.853 26.6869 163.753 26.7869 163.647 26.8803C163.54 26.9736 163.433 27.1069 163.327 27.2803C163.26 27.3469 163.193 27.4936 163.127 27.7203C163.06 27.9469 163 28.1669 162.947 28.3803C162.907 28.5803 162.887 28.7003 162.887 28.7403C162.887 28.7403 162.867 28.8069 162.827 28.9403C162.787 29.0603 162.72 29.1803 162.627 29.3003C162.467 29.5136 162.307 29.6469 162.147 29.7003C162 29.7536 161.82 29.6736 161.607 29.4603Z" fill="#EB0029"/>
<path d="M169.714 30.1203C169.287 30.1203 168.894 30.0269 168.534 29.8403C168.187 29.6403 167.907 29.4003 167.694 29.1203C167.48 28.8269 167.374 28.5469 167.374 28.2803C167.374 28.1603 167.394 28.0736 167.434 28.0203C167.487 27.9669 167.56 27.9403 167.654 27.9403C167.72 27.9536 167.8 27.9869 167.894 28.0403C167.987 28.0936 168.08 28.1536 168.174 28.2203C168.387 28.3669 168.62 28.4603 168.874 28.5003C169.127 28.5403 169.354 28.5269 169.554 28.4603C169.754 28.3803 169.867 28.2603 169.894 28.1003C169.894 28.0469 169.867 27.9336 169.814 27.7603C169.76 27.5869 169.694 27.4203 169.614 27.2603C169.28 26.7669 169.074 26.3003 168.994 25.8603C168.914 25.4069 168.86 24.9536 168.834 24.5003C168.834 24.3136 168.92 24.1069 169.094 23.8803C169.267 23.6403 169.48 23.4069 169.734 23.1803C170.014 22.9403 170.32 22.7136 170.654 22.5003C171 22.2869 171.34 22.1069 171.674 21.9603C172.007 21.8136 172.287 21.7269 172.514 21.7003C172.754 21.7003 173.007 21.7136 173.274 21.7403C173.554 21.7536 173.74 21.8003 173.834 21.8803C174.02 22.0269 174.194 22.2669 174.354 22.6003C174.514 22.9336 174.594 23.2136 174.594 23.4403C174.594 23.5469 174.534 23.6803 174.414 23.8403C174.307 23.9869 174.207 24.1536 174.114 24.3403C174.06 24.4336 174.014 24.5336 173.974 24.6403C173.934 24.7469 173.887 24.8536 173.834 24.9603C173.754 25.1469 173.607 25.2269 173.394 25.2003C173.194 25.1603 173.007 25.0536 172.834 24.8803C172.66 24.6936 172.574 24.4803 172.574 24.2403C172.574 24.0403 172.634 23.8669 172.754 23.7203C172.874 23.5736 172.934 23.4736 172.934 23.4203C172.934 23.3936 172.92 23.3736 172.894 23.3603C172.867 23.3469 172.82 23.3403 172.754 23.3403C172.66 23.3403 172.507 23.3803 172.294 23.4603C172.094 23.5269 171.88 23.6269 171.654 23.7603C171.427 23.8936 171.22 24.0536 171.034 24.2403C170.9 24.3869 170.787 24.5469 170.694 24.7203C170.614 24.8803 170.574 25.0536 170.574 25.2403C170.574 25.4269 170.607 25.6469 170.674 25.9003C170.754 26.1403 170.84 26.3403 170.934 26.5003C170.96 26.5269 171 26.6003 171.054 26.7203C171.12 26.8269 171.194 26.9603 171.274 27.1203C171.767 28.1336 171.847 28.8869 171.514 29.3803C171.194 29.8736 170.594 30.1203 169.714 30.1203Z" fill="#EB0029"/>
<path d="M181.426 29.8603C181.172 29.9269 180.906 29.9736 180.626 30.0003C180.359 30.0403 180.126 29.9603 179.926 29.7603C179.806 29.5736 179.699 29.4069 179.606 29.2603C179.512 29.1136 179.452 28.8536 179.426 28.4803C179.412 28.2269 179.426 27.9536 179.466 27.6603C179.519 27.3536 179.539 27.1336 179.526 27.0003C179.632 26.5069 179.659 26.1536 179.606 25.9403C179.566 25.7269 179.512 25.6203 179.446 25.6203C179.299 25.5936 179.066 25.7003 178.746 25.9403C178.439 26.1803 178.072 26.5203 177.646 26.9603C177.232 27.3869 176.786 27.8736 176.306 28.4203C176.052 28.7669 175.866 29.0269 175.746 29.2003C175.639 29.3603 175.559 29.4403 175.506 29.4403C175.266 29.4403 175.046 29.4003 174.846 29.3203C174.646 29.2403 174.486 29.1269 174.366 28.9803C174.246 28.8336 174.172 28.6803 174.146 28.5203C174.146 28.4669 174.179 28.3269 174.246 28.1003C174.312 27.8603 174.392 27.5869 174.486 27.2803C174.579 26.9736 174.666 26.6869 174.746 26.4203C174.839 26.1536 174.906 25.9669 174.946 25.8603C175.066 25.5136 175.206 25.0936 175.366 24.6003C175.539 24.0936 175.692 23.6469 175.826 23.2603C175.879 23.0869 175.972 22.8403 176.106 22.5203C176.239 22.1869 176.372 21.8536 176.506 21.5203C176.639 21.1869 176.732 20.9403 176.786 20.7803C176.826 20.6736 176.899 20.4869 177.006 20.2203C177.112 19.9403 177.226 19.6336 177.346 19.3003C177.479 18.9669 177.599 18.6603 177.706 18.3803C177.826 18.0869 177.906 17.8736 177.946 17.7403C177.932 17.6203 177.939 17.5136 177.966 17.4203C178.006 17.3136 178.046 17.2336 178.086 17.1803C178.139 17.1803 178.199 17.1803 178.266 17.1803C178.332 17.1669 178.366 17.1603 178.366 17.1603C178.366 17.1336 178.452 17.1603 178.626 17.2403C178.812 17.3203 178.992 17.4203 179.166 17.5403C179.352 17.6469 179.446 17.7403 179.446 17.8203C179.512 17.9936 179.519 18.2203 179.466 18.5003C179.412 18.7669 179.272 19.1736 179.046 19.7203C178.899 19.9336 178.752 20.2536 178.606 20.6803C178.472 21.1069 178.339 21.4669 178.206 21.7603C178.152 21.8536 178.072 22.0203 177.966 22.2603C177.872 22.4869 177.759 22.7603 177.626 23.0803C177.506 23.3869 177.386 23.7136 177.266 24.0603C177.146 24.4069 177.039 24.7469 176.946 25.0803C176.812 25.4003 176.766 25.6136 176.806 25.7203C176.846 25.8269 177.006 25.7069 177.286 25.3603C177.659 24.9603 178.006 24.6003 178.326 24.2803C178.659 23.9603 178.966 23.7069 179.246 23.5203C179.539 23.3203 179.799 23.2336 180.026 23.2603C180.146 23.2869 180.299 23.3736 180.486 23.5203C180.686 23.6536 180.872 23.8136 181.046 24.0003C181.232 24.1736 181.352 24.3403 181.406 24.5003C181.459 24.6869 181.492 24.8669 181.506 25.0403C181.532 25.2136 181.539 25.4603 181.526 25.7803C181.512 26.0869 181.479 26.5469 181.426 27.1603C181.346 27.6136 181.292 27.9403 181.266 28.1403C181.239 28.3269 181.246 28.4603 181.286 28.5403C181.339 28.6203 181.419 28.7069 181.526 28.8003C181.726 28.9603 181.806 29.1536 181.766 29.3803C181.726 29.5936 181.612 29.7536 181.426 29.8603Z" fill="#EB0029"/>
<path d="M183.504 29.3403C183.45 29.3403 183.337 29.3003 183.164 29.2203C182.99 29.1403 182.904 29.1003 182.904 29.1003C182.904 29.0469 182.884 28.9803 182.844 28.9003C182.817 28.8203 182.804 28.7536 182.804 28.7003C182.71 28.6469 182.617 28.5603 182.524 28.4403C182.43 28.3203 182.41 28.1869 182.464 28.0403C182.544 27.8936 182.65 27.6736 182.784 27.3803C182.93 27.0736 183.084 26.7336 183.244 26.3603C183.417 25.9736 183.577 25.6003 183.724 25.2403C183.87 24.8803 183.997 24.5736 184.104 24.3203C184.21 24.0536 184.27 23.8936 184.284 23.8403C184.284 23.7869 184.29 23.6936 184.304 23.5603C184.33 23.4269 184.417 23.3136 184.564 23.2203C184.737 23.1003 184.917 23.0936 185.104 23.2003C185.29 23.3069 185.45 23.4936 185.584 23.7603C185.717 24.0136 185.784 24.3136 185.784 24.6603C185.784 24.7536 185.717 24.9936 185.584 25.3803C185.45 25.7536 185.27 26.2003 185.044 26.7203C184.83 27.2403 184.59 27.7669 184.324 28.3003C184.124 28.6869 183.97 28.9603 183.864 29.1203C183.77 29.2669 183.65 29.3403 183.504 29.3403ZM186.224 21.6803C186.064 21.6803 185.87 21.6069 185.644 21.4603C185.43 21.3136 185.237 21.1269 185.064 20.9003C184.89 20.6736 184.804 20.4336 184.804 20.1803C184.804 20.1136 184.864 19.9936 184.984 19.8203C185.104 19.6336 185.217 19.4536 185.324 19.2803C185.444 19.1069 185.504 19.0069 185.504 18.9803C185.61 18.9803 185.737 19.0003 185.884 19.0403C186.03 19.0803 186.15 19.1269 186.244 19.1803C186.39 19.5136 186.584 19.8003 186.824 20.0403C187.064 20.2669 187.184 20.5269 187.184 20.8203C187.184 21.1136 187.11 21.3336 186.964 21.4803C186.817 21.6136 186.57 21.6803 186.224 21.6803Z" fill="#EB0029"/>
<path d="M185.429 34.6603C185.376 34.6603 185.296 34.6603 185.189 34.6603C185.096 34.6736 185.016 34.6203 184.949 34.5003C184.896 34.4336 184.816 34.3003 184.709 34.1003C184.603 33.9136 184.583 33.6469 184.649 33.3003C184.716 33.0736 184.769 32.8469 184.809 32.6203C184.849 32.4069 184.869 32.2469 184.869 32.1403C184.869 32.0869 184.883 31.9803 184.909 31.8203C184.949 31.6736 184.969 31.5669 184.969 31.5003C185.036 31.3936 185.089 31.2469 185.129 31.0603C185.169 30.8736 185.189 30.7069 185.189 30.5603C185.189 30.4003 185.269 30.2536 185.429 30.1203C185.429 30.0136 185.449 29.8803 185.489 29.7203C185.543 29.5603 185.569 29.4536 185.569 29.4003C185.609 29.2136 185.696 28.8869 185.829 28.4203C185.976 27.9403 186.149 27.4003 186.349 26.8003C186.563 26.2003 186.769 25.6136 186.969 25.0403C187.169 24.4669 187.349 23.9803 187.509 23.5803C187.669 23.2069 187.803 22.8603 187.909 22.5403C188.016 22.2203 188.069 21.9936 188.069 21.8603C188.069 21.8069 188.083 21.7669 188.109 21.7403C188.136 21.7003 188.196 21.6269 188.289 21.5203C188.423 21.3869 188.596 21.3403 188.809 21.3803C189.036 21.4069 189.223 21.4736 189.369 21.5803C189.476 21.7536 189.549 21.9136 189.589 22.0603C189.643 22.1936 189.643 22.4069 189.589 22.7003C189.589 22.9003 189.543 23.0869 189.449 23.2603C189.356 23.4203 189.269 23.5536 189.189 23.6603C189.123 23.7536 189.103 23.7936 189.129 23.7803C189.716 23.4203 190.243 23.2269 190.709 23.2003C191.189 23.1603 191.589 23.2403 191.909 23.4403C192.243 23.6269 192.496 23.8869 192.669 24.2203C192.843 24.5536 192.929 24.9136 192.929 25.3003C192.929 25.4603 192.876 25.6736 192.769 25.9403C192.663 26.2069 192.543 26.4603 192.409 26.7003C192.276 26.9269 192.169 27.0803 192.089 27.1603C192.036 27.1603 191.983 27.2069 191.929 27.3003C191.876 27.3803 191.823 27.4736 191.769 27.5803C191.663 27.7136 191.483 27.8669 191.229 28.0403C190.989 28.2003 190.743 28.3336 190.489 28.4403C190.236 28.5336 190.056 28.5603 189.949 28.5203C189.949 28.5203 189.929 28.5336 189.889 28.5603C189.863 28.5869 189.849 28.6336 189.849 28.7003C189.849 28.7269 189.756 28.7803 189.569 28.8603C189.383 28.9403 189.163 29.0136 188.909 29.0803C188.656 29.1469 188.423 29.1803 188.209 29.1803C187.929 29.1803 187.729 29.1269 187.609 29.0203C187.583 29.0469 187.549 29.0869 187.509 29.1403C187.483 29.1936 187.469 29.2403 187.469 29.2803C187.469 29.3603 187.436 29.4869 187.369 29.6603C187.316 29.8336 187.249 29.9869 187.169 30.1203C187.089 30.2669 187.016 30.3403 186.949 30.3403C186.949 30.3403 186.936 30.3603 186.909 30.4003C186.883 30.4403 186.896 30.4936 186.949 30.5603C186.949 30.5603 186.943 30.6336 186.929 30.7803C186.929 30.9403 186.896 31.0736 186.829 31.1803C186.829 31.2869 186.809 31.4469 186.769 31.6603C186.729 31.8736 186.683 32.0336 186.629 32.1403C186.629 32.3003 186.603 32.4536 186.549 32.6003C186.509 32.7603 186.463 32.8403 186.409 32.8403C186.356 32.8536 186.323 32.9336 186.309 33.0803C186.296 33.2403 186.289 33.3536 186.289 33.4203C186.276 33.7536 186.169 34.0403 185.969 34.2803C185.769 34.5336 185.589 34.6603 185.429 34.6603ZM187.989 27.6603C188.096 27.6603 188.289 27.6136 188.569 27.5203C188.849 27.4269 189.143 27.3136 189.449 27.1803C189.756 27.0336 189.996 26.8869 190.169 26.7403C190.516 26.4336 190.783 26.1336 190.969 25.8403C191.169 25.5469 191.156 25.2203 190.929 24.8603C190.823 24.6736 190.649 24.6003 190.409 24.6403C190.183 24.6669 189.929 24.7736 189.649 24.9603C189.369 25.1469 189.083 25.3803 188.789 25.6603C188.629 25.8336 188.483 26.0336 188.349 26.2603C188.216 26.4869 188.103 26.7069 188.009 26.9203C187.929 27.1336 187.883 27.3136 187.869 27.4603C187.856 27.5936 187.896 27.6603 187.989 27.6603Z" fill="#EB0029"/>
<path d="M200.012 30.1203C199.825 30.0669 199.638 29.9736 199.452 29.8403C199.265 29.7069 199.072 29.5536 198.872 29.3803C198.712 29.1669 198.598 28.9736 198.532 28.8003C198.465 28.6136 198.425 28.4003 198.412 28.1603C198.412 27.9069 198.412 27.5869 198.412 27.2003C198.412 27.0403 198.438 26.8136 198.492 26.5203C198.558 26.2269 198.625 25.9203 198.692 25.6003C198.772 25.2803 198.845 25.0003 198.912 24.7603C198.978 24.5069 199.018 24.3403 199.032 24.2603C199.072 24.0869 199.005 23.9869 198.832 23.9603C198.658 23.9336 198.465 23.9269 198.252 23.9403C198.052 23.9403 197.918 23.9203 197.852 23.8803C197.798 23.8669 197.772 23.8003 197.772 23.6803C197.772 23.5469 197.772 23.4803 197.772 23.4803C197.772 23.4269 197.745 23.3936 197.692 23.3803C197.638 23.3536 197.592 23.3069 197.552 23.2403C197.525 23.1869 197.558 23.0869 197.652 22.9403C197.745 22.7936 197.865 22.7069 198.012 22.6803C198.132 22.6536 198.312 22.6336 198.552 22.6203C198.792 22.5936 199.032 22.5469 199.272 22.4803C199.525 22.4003 199.718 22.2803 199.852 22.1203C199.972 21.8269 200.105 21.5136 200.252 21.1803C200.398 20.8336 200.538 20.5336 200.672 20.2803C200.805 20.0136 200.898 19.8469 200.952 19.7803C201.178 19.6603 201.412 19.6136 201.652 19.6403C201.892 19.6536 202.078 19.7669 202.212 19.9803C202.278 20.0736 202.332 20.1403 202.372 20.1803C202.425 20.2203 202.445 20.2803 202.432 20.3603C202.432 20.4403 202.378 20.5869 202.272 20.8003C202.178 21.0003 202.018 21.3136 201.792 21.7403C201.725 21.8736 201.665 21.9936 201.612 22.1003C201.558 22.1936 201.532 22.2403 201.532 22.2403C201.585 22.2536 201.665 22.2603 201.772 22.2603C201.878 22.2603 202.012 22.2536 202.172 22.2403C202.318 22.2136 202.478 22.1936 202.652 22.1803C202.825 22.1536 202.978 22.1536 203.112 22.1803C203.418 22.1803 203.645 22.2669 203.792 22.4403C203.938 22.6136 204.018 22.8336 204.032 23.1003C204.058 23.2469 204.005 23.3736 203.872 23.4803C203.738 23.5869 203.492 23.6403 203.132 23.6403C203.012 23.6403 202.838 23.6469 202.612 23.6603C202.385 23.6736 202.152 23.6869 201.912 23.7003C201.672 23.7136 201.465 23.7336 201.292 23.7603C201.132 23.7736 201.052 23.7936 201.052 23.8203C201.012 23.8469 200.945 23.9536 200.852 24.1403C200.772 24.3136 200.685 24.5269 200.592 24.7803C200.512 25.0336 200.438 25.2736 200.372 25.5003C200.278 25.9536 200.212 26.3936 200.172 26.8203C200.132 27.2469 200.125 27.6203 200.152 27.9403C200.192 28.2469 200.272 28.4669 200.392 28.6003C200.512 28.7203 200.692 28.7203 200.932 28.6003C201.185 28.4669 201.418 28.3136 201.632 28.1403C201.872 27.9403 202.078 27.8803 202.252 27.9603C202.425 28.0269 202.532 28.1736 202.572 28.4003C202.625 28.6136 202.565 28.8469 202.392 29.1003C202.232 29.3536 202.005 29.5669 201.712 29.7403C201.418 29.9136 201.118 30.0336 200.812 30.1003C200.505 30.1803 200.238 30.1869 200.012 30.1203Z" fill="#EB0029"/>
<path d="M204.553 34.7603C204.499 34.7736 204.419 34.7536 204.313 34.7003C204.219 34.6469 204.139 34.5536 204.073 34.4203C204.006 34.2869 203.986 34.1136 204.013 33.9003C203.959 33.7136 203.966 33.4803 204.033 33.2003C204.113 32.9336 204.279 32.5336 204.533 32.0003C204.666 31.7869 204.786 31.5336 204.893 31.2403C205.013 30.9469 205.146 30.6536 205.293 30.3603C205.359 30.2403 205.473 30.0336 205.633 29.7403C205.806 29.4469 205.993 29.1003 206.193 28.7003C206.406 28.2869 206.599 27.8603 206.773 27.4203C206.426 27.7803 206.126 28.1203 205.873 28.4403C205.633 28.7469 205.413 28.9936 205.213 29.1803C205.026 29.3536 204.826 29.4336 204.613 29.4203C204.439 29.3803 204.233 29.2669 203.993 29.0803C203.753 28.8936 203.599 28.6869 203.533 28.4603C203.479 28.1669 203.459 27.7936 203.473 27.3403C203.499 26.8869 203.586 26.2003 203.733 25.2803C203.839 24.8269 203.886 24.4803 203.873 24.2403C203.873 23.9869 203.839 23.8003 203.773 23.6803C203.706 23.5603 203.619 23.4536 203.513 23.3603C203.339 23.2003 203.326 23.0269 203.473 22.8403C203.619 22.6536 203.786 22.5136 203.973 22.4203C204.253 22.3536 204.473 22.3403 204.633 22.3803C204.806 22.4069 204.979 22.5203 205.153 22.7203C205.259 22.8936 205.366 23.0803 205.473 23.2803C205.579 23.4803 205.633 23.7669 205.633 24.1403C205.633 24.3003 205.626 24.4803 205.613 24.6803C205.599 24.8669 205.586 25.0403 205.573 25.2003C205.559 25.3603 205.546 25.4869 205.533 25.5803C205.399 26.0736 205.279 26.5003 205.173 26.8603C205.066 27.2203 205.046 27.4003 205.113 27.4003C205.379 27.1869 205.606 26.9803 205.793 26.7803C205.993 26.5803 206.206 26.3403 206.433 26.0603C206.659 25.7803 206.939 25.4136 207.273 24.9603C207.393 24.7336 207.513 24.5136 207.633 24.3003C207.753 24.0869 207.853 23.8669 207.933 23.6403C208.013 23.4669 208.119 23.2869 208.253 23.1003C208.386 22.9003 208.479 22.7936 208.533 22.7803C208.599 22.7536 208.693 22.7603 208.813 22.8003C208.933 22.8403 209.046 22.8869 209.153 22.9403C209.273 22.9803 209.333 23.0136 209.333 23.0403C209.346 23.0536 209.413 23.0669 209.533 23.0803C209.653 23.0936 209.773 23.1069 209.893 23.1203C210.013 23.1203 210.073 23.1403 210.073 23.1803C210.073 23.2069 210.033 23.3069 209.953 23.4803C209.886 23.6536 209.806 23.8469 209.713 24.0603C209.619 24.2736 209.533 24.4669 209.453 24.6403C209.386 24.8003 209.359 24.8936 209.373 24.9203C209.399 24.9469 209.379 25.0469 209.313 25.2203C209.246 25.3803 209.166 25.5603 209.073 25.7603C208.993 25.9603 208.919 26.1403 208.853 26.3003C208.719 26.7403 208.566 27.1803 208.393 27.6203C208.219 28.0469 208.013 28.4736 207.773 28.9003C207.693 29.0603 207.573 29.3069 207.413 29.6403C207.266 29.9736 207.119 30.3003 206.973 30.6203C206.839 30.9536 206.733 31.2069 206.653 31.3803C206.599 31.4869 206.519 31.6536 206.413 31.8803C206.319 32.1203 206.213 32.3803 206.093 32.6603C205.986 32.9403 205.879 33.2003 205.773 33.4403C205.666 33.6936 205.586 33.8869 205.533 34.0203C205.506 34.2736 205.446 34.4603 205.353 34.5803C205.233 34.7003 205.066 34.7603 204.853 34.7603C204.653 34.7603 204.553 34.7603 204.553 34.7603Z" fill="#EB0029"/>
<path d="M208.869 34.6603C208.816 34.6603 208.736 34.6603 208.629 34.6603C208.536 34.6736 208.456 34.6203 208.389 34.5003C208.336 34.4336 208.256 34.3003 208.149 34.1003C208.043 33.9136 208.023 33.6469 208.089 33.3003C208.156 33.0736 208.209 32.8469 208.249 32.6203C208.289 32.4069 208.309 32.2469 208.309 32.1403C208.309 32.0869 208.323 31.9803 208.349 31.8203C208.389 31.6736 208.409 31.5669 208.409 31.5003C208.476 31.3936 208.529 31.2469 208.569 31.0603C208.609 30.8736 208.629 30.7069 208.629 30.5603C208.629 30.4003 208.709 30.2536 208.869 30.1203C208.869 30.0136 208.889 29.8803 208.929 29.7203C208.983 29.5603 209.009 29.4536 209.009 29.4003C209.049 29.2136 209.136 28.8869 209.269 28.4203C209.416 27.9403 209.589 27.4003 209.789 26.8003C210.003 26.2003 210.209 25.6136 210.409 25.0403C210.609 24.4669 210.789 23.9803 210.949 23.5803C211.109 23.2069 211.243 22.8603 211.349 22.5403C211.456 22.2203 211.509 21.9936 211.509 21.8603C211.509 21.8069 211.523 21.7669 211.549 21.7403C211.576 21.7003 211.636 21.6269 211.729 21.5203C211.863 21.3869 212.036 21.3403 212.249 21.3803C212.476 21.4069 212.663 21.4736 212.809 21.5803C212.916 21.7536 212.989 21.9136 213.029 22.0603C213.083 22.1936 213.083 22.4069 213.029 22.7003C213.029 22.9003 212.983 23.0869 212.889 23.2603C212.796 23.4203 212.709 23.5536 212.629 23.6603C212.563 23.7536 212.543 23.7936 212.569 23.7803C213.156 23.4203 213.683 23.2269 214.149 23.2003C214.629 23.1603 215.029 23.2403 215.349 23.4403C215.683 23.6269 215.936 23.8869 216.109 24.2203C216.283 24.5536 216.369 24.9136 216.369 25.3003C216.369 25.4603 216.316 25.6736 216.209 25.9403C216.103 26.2069 215.983 26.4603 215.849 26.7003C215.716 26.9269 215.609 27.0803 215.529 27.1603C215.476 27.1603 215.423 27.2069 215.369 27.3003C215.316 27.3803 215.263 27.4736 215.209 27.5803C215.103 27.7136 214.923 27.8669 214.669 28.0403C214.429 28.2003 214.183 28.3336 213.929 28.4403C213.676 28.5336 213.496 28.5603 213.389 28.5203C213.389 28.5203 213.369 28.5336 213.329 28.5603C213.303 28.5869 213.289 28.6336 213.289 28.7003C213.289 28.7269 213.196 28.7803 213.009 28.8603C212.823 28.9403 212.603 29.0136 212.349 29.0803C212.096 29.1469 211.863 29.1803 211.649 29.1803C211.369 29.1803 211.169 29.1269 211.049 29.0203C211.023 29.0469 210.989 29.0869 210.949 29.1403C210.923 29.1936 210.909 29.2403 210.909 29.2803C210.909 29.3603 210.876 29.4869 210.809 29.6603C210.756 29.8336 210.689 29.9869 210.609 30.1203C210.529 30.2669 210.456 30.3403 210.389 30.3403C210.389 30.3403 210.376 30.3603 210.349 30.4003C210.323 30.4403 210.336 30.4936 210.389 30.5603C210.389 30.5603 210.383 30.6336 210.369 30.7803C210.369 30.9403 210.336 31.0736 210.269 31.1803C210.269 31.2869 210.249 31.4469 210.209 31.6603C210.169 31.8736 210.123 32.0336 210.069 32.1403C210.069 32.3003 210.043 32.4536 209.989 32.6003C209.949 32.7603 209.903 32.8403 209.849 32.8403C209.796 32.8536 209.763 32.9336 209.749 33.0803C209.736 33.2403 209.729 33.3536 209.729 33.4203C209.716 33.7536 209.609 34.0403 209.409 34.2803C209.209 34.5336 209.029 34.6603 208.869 34.6603ZM211.429 27.6603C211.536 27.6603 211.729 27.6136 212.009 27.5203C212.289 27.4269 212.583 27.3136 212.889 27.1803C213.196 27.0336 213.436 26.8869 213.609 26.7403C213.956 26.4336 214.223 26.1336 214.409 25.8403C214.609 25.5469 214.596 25.2203 214.369 24.8603C214.263 24.6736 214.089 24.6003 213.849 24.6403C213.623 24.6669 213.369 24.7736 213.089 24.9603C212.809 25.1469 212.523 25.3803 212.229 25.6603C212.069 25.8336 211.923 26.0336 211.789 26.2603C211.656 26.4869 211.543 26.7069 211.449 26.9203C211.369 27.1336 211.323 27.3136 211.309 27.4603C211.296 27.5936 211.336 27.6603 211.429 27.6603Z" fill="#EB0029"/>
<path d="M220.468 29.6003C220.068 29.8269 219.641 29.9603 219.188 30.0003C218.748 30.0269 218.334 29.9669 217.948 29.8203C217.561 29.6603 217.248 29.4269 217.008 29.1203C216.874 28.9469 216.748 28.6736 216.628 28.3003C216.508 27.9136 216.488 27.3936 216.568 26.7403C216.648 26.1269 216.834 25.5069 217.128 24.8803C217.434 24.2536 217.808 23.7003 218.248 23.2203C218.688 22.7403 219.168 22.4136 219.688 22.2403C219.874 22.1736 220.061 22.1269 220.248 22.1003C220.448 22.0603 220.708 22.0536 221.028 22.0803C221.334 22.1203 221.608 22.2003 221.848 22.3203C222.088 22.4269 222.261 22.5469 222.368 22.6803C222.581 22.8936 222.721 23.1003 222.788 23.3003C222.854 23.5003 222.881 23.6936 222.868 23.8803C222.801 24.3069 222.608 24.7669 222.288 25.2603C221.981 25.7536 221.548 26.1203 220.988 26.3603C220.761 26.4536 220.494 26.5136 220.188 26.5403C219.881 26.5669 219.461 26.5269 218.928 26.4203C218.608 26.3536 218.394 26.3869 218.288 26.5203C218.194 26.6536 218.154 26.9136 218.168 27.3003C218.194 27.5403 218.248 27.7536 218.328 27.9403C218.421 28.1136 218.588 28.2336 218.828 28.3003C219.134 28.3536 219.354 28.3603 219.488 28.3203C219.621 28.2669 219.788 28.1936 219.988 28.1003C220.094 28.0336 220.194 27.9603 220.288 27.8803C220.394 27.8003 220.494 27.7203 220.588 27.6403C220.694 27.5603 220.781 27.5003 220.848 27.4603C220.914 27.4069 220.981 27.3736 221.048 27.3603C221.114 27.3469 221.181 27.3403 221.248 27.3403C221.394 27.3536 221.534 27.4336 221.668 27.5803C221.801 27.7269 221.888 27.8669 221.928 28.0003C221.928 28.1069 221.861 28.2603 221.728 28.4603C221.594 28.6469 221.414 28.8469 221.188 29.0603C220.974 29.2603 220.734 29.4403 220.468 29.6003ZM220.208 25.1403C220.301 25.1003 220.434 25.0069 220.608 24.8603C220.794 24.7136 220.961 24.5603 221.108 24.4003C221.254 24.2269 221.328 24.0936 221.328 24.0003C221.328 23.8536 221.228 23.7269 221.028 23.6203C220.841 23.5136 220.594 23.4936 220.288 23.5603C220.181 23.5869 220.054 23.6603 219.908 23.7803C219.761 23.9003 219.614 24.0403 219.468 24.2003C219.321 24.3469 219.194 24.4936 219.088 24.6403C218.981 24.7736 218.908 24.8803 218.868 24.9603C218.921 25.0269 219.028 25.0803 219.188 25.1203C219.348 25.1603 219.521 25.1803 219.708 25.1803C219.908 25.1803 220.074 25.1669 220.208 25.1403Z" fill="#EB0029"/>
<path d="M223.927 28.9603C223.647 29.0536 223.414 29.1003 223.227 29.1003C223.041 29.0869 222.834 29.0003 222.607 28.8403C222.341 28.5736 222.247 28.3069 222.327 28.0403C222.421 27.7603 222.661 27.4869 223.047 27.2203C223.314 27.0603 223.507 26.9803 223.627 26.9803C223.761 26.9669 223.954 27.0136 224.207 27.1203C224.661 27.4003 224.861 27.7136 224.807 28.0603C224.754 28.3936 224.461 28.6936 223.927 28.9603Z" fill="#EB0029"/>
</svg>
