<svg width="200" height="224" viewBox="0 0 200 224" fill="none" xmlns="http://www.w3.org/2000/svg">
<path fill-rule="evenodd" clip-rule="evenodd" d="M30.0002 46.0004C29.4479 46.0004 29.0002 46.4481 29.0002 47.0004C29.0002 140.088 103.819 215.701 196.603 216.984L191.929 221.657C191.539 222.048 191.539 222.681 191.929 223.071C192.32 223.462 192.953 223.462 193.343 223.071L199.707 216.707C200.098 216.317 200.098 215.684 199.707 215.293L193.343 208.929C192.953 208.539 192.32 208.539 191.929 208.929C191.539 209.32 191.539 209.953 191.929 210.344L196.569 214.983C104.906 213.683 31.0002 138.972 31.0002 47.0004C31.0002 46.4481 30.5525 46.0004 30.0002 46.0004Z" fill="#EB0029"/>
<path d="M9.3658 15.1404C9.2058 15.1404 9.07247 15.0537 8.9658 14.8804C8.8858 14.8004 8.79914 14.6737 8.7058 14.5004C8.61247 14.3271 8.57914 14.0471 8.6058 13.6604C8.6458 13.2604 8.79247 12.6804 9.0458 11.9204C9.17914 11.4137 9.2858 11.0471 9.3658 10.8204C9.4458 10.5804 9.4858 10.4071 9.4858 10.3004C9.4858 10.1537 9.49914 10.0337 9.5258 9.94039C9.5658 9.83372 9.5858 9.73372 9.5858 9.64039C9.6658 9.64039 9.7458 9.56706 9.8258 9.42039C9.9058 9.27372 9.97247 9.07372 10.0258 8.82039C10.0791 8.59372 10.1258 8.41372 10.1658 8.28039C10.2191 8.13372 10.2458 8.03372 10.2458 7.98039C10.3125 7.87372 10.3791 7.70706 10.4458 7.48039C10.5258 7.25372 10.6458 6.98039 10.8058 6.66039C10.9125 6.26039 11.0325 5.84706 11.1658 5.42039C11.2991 4.98039 11.4325 4.57372 11.5658 4.20039C11.7125 3.81372 11.8325 3.51372 11.9258 3.30039C12.0725 2.88706 12.1858 2.60039 12.2658 2.44039C12.3458 2.26706 12.3458 2.15372 12.2658 2.10039C12.1725 2.03372 12.1258 1.86706 12.1258 1.60039C12.1391 1.32039 12.2658 1.08039 12.5058 0.88039C12.6525 0.707057 12.8391 0.587057 13.0658 0.52039C13.2925 0.440391 13.5525 0.400391 13.8458 0.400391C14.1391 0.400391 14.4458 0.413724 14.7658 0.44039C15.0058 0.453723 15.2591 0.46039 15.5258 0.46039C15.8058 0.46039 15.9791 0.46039 16.0458 0.46039C16.1658 0.513723 16.3125 0.573723 16.4858 0.64039C16.6591 0.707056 16.8125 0.773723 16.9458 0.84039C17.0925 0.893723 17.1658 0.94039 17.1658 0.98039C17.1658 1.06039 17.1925 1.11372 17.2458 1.14039C17.3125 1.15372 17.3791 1.16706 17.4458 1.18039C17.5391 1.18039 17.6925 1.26706 17.9058 1.44039C18.1191 1.60039 18.3325 1.80039 18.5458 2.04039C18.7725 2.26706 18.9325 2.49372 19.0258 2.72039C19.1325 2.94706 19.2191 3.16039 19.2858 3.36039C19.3658 3.56039 19.3725 3.84706 19.3058 4.22039C19.2925 4.42039 19.2591 4.62039 19.2058 4.82039C19.1658 5.02039 19.1191 5.15372 19.0658 5.22039C18.9858 5.27372 18.9125 5.34039 18.8458 5.42039C18.7791 5.50039 18.7458 5.57372 18.7458 5.64039C18.7458 5.69372 18.6925 5.82706 18.5858 6.04039C18.4791 6.24039 18.3458 6.47372 18.1858 6.74039C18.0258 6.99372 17.8525 7.24706 17.6658 7.50039C17.4791 7.75372 17.3058 7.95372 17.1458 8.10039C16.9725 8.31372 16.7658 8.51372 16.5258 8.70039C16.2991 8.88706 16.0925 9.04039 15.9058 9.16039C15.5591 9.32039 15.1591 9.47372 14.7058 9.62039C14.2658 9.76706 13.8391 9.88706 13.4258 9.98039C13.0125 10.0604 12.6791 10.0937 12.4258 10.0804C12.0391 10.1337 11.7858 10.1871 11.6658 10.2404C11.5458 10.2804 11.4591 10.3937 11.4058 10.5804C11.3391 10.7537 11.2725 10.9337 11.2058 11.1204C11.1525 11.3071 11.1258 11.4404 11.1258 11.5204C11.0991 11.5737 11.0391 11.7204 10.9458 11.9604C10.8658 12.2004 10.7658 12.4804 10.6458 12.8004C10.5391 13.1204 10.4391 13.4404 10.3458 13.7604C10.2525 14.0804 10.1791 14.3537 10.1258 14.5804C10.0725 14.7671 9.95914 14.9071 9.7858 15.0004C9.6258 15.0937 9.4858 15.1404 9.3658 15.1404ZM12.2058 8.46039C12.2591 8.51372 12.4325 8.52039 12.7258 8.48039C13.0191 8.44039 13.3725 8.34039 13.7858 8.18039C14.0525 8.08706 14.3191 7.97372 14.5858 7.84039C14.8658 7.70706 15.1325 7.56039 15.3858 7.40039C15.5191 7.30706 15.6591 7.19372 15.8058 7.06039C15.9525 6.91372 16.1591 6.67372 16.4258 6.34039C16.4658 6.27372 16.5325 6.14706 16.6258 5.96039C16.7325 5.76039 16.8258 5.57372 16.9058 5.40039C17.0258 5.21372 17.1458 4.94039 17.2658 4.58039C17.3858 4.20706 17.4125 3.90039 17.3458 3.66039C17.2791 3.31372 17.1458 3.02706 16.9458 2.80039C16.7458 2.56039 16.4925 2.38706 16.1858 2.28039C15.8925 2.22706 15.6458 2.19372 15.4458 2.18039C15.2591 2.16706 15.0525 2.18039 14.8258 2.22039C14.6125 2.28706 14.4591 2.38039 14.3658 2.50039C14.2858 2.62039 14.1658 2.87372 14.0058 3.26039C13.9125 3.44706 13.7791 3.70706 13.6058 4.04039C13.4325 4.36039 13.2858 4.68706 13.1658 5.02039C12.9258 5.90039 12.7125 6.57372 12.5258 7.04039C12.3525 7.50706 12.2391 7.81372 12.1858 7.96039C12.1991 8.10706 12.1925 8.21372 12.1658 8.28039C12.1391 8.33372 12.1525 8.39372 12.2058 8.46039Z" fill="#EB0029"/>
<path d="M18.0766 13.6604C17.9699 13.5537 17.8899 13.3937 17.8366 13.1804C17.7966 12.9671 17.7833 12.7604 17.7966 12.5604C17.8099 12.3471 17.8432 12.1871 17.8966 12.0804C17.8966 11.9737 17.9099 11.8937 17.9366 11.8404C17.9766 11.7737 17.9899 11.7137 17.9766 11.6604C17.9632 11.6071 17.9766 11.5137 18.0166 11.3804C18.0566 11.2471 18.0966 11.1204 18.1366 11.0004C18.2299 10.7871 18.3366 10.5137 18.4566 10.1804C18.5766 9.83372 18.6966 9.48706 18.8166 9.14039C18.9366 8.78039 19.0366 8.47372 19.1166 8.22039C19.1966 7.95372 19.2432 7.79372 19.2566 7.74039C19.2566 7.58039 19.3632 7.49372 19.5766 7.48039C19.7366 7.42706 19.9299 7.49372 20.1566 7.68039C20.3833 7.86706 20.5632 8.06706 20.6966 8.28039C20.8032 8.38706 20.8433 8.52706 20.8166 8.70039C20.7899 8.87372 20.7033 9.12039 20.5566 9.44039C20.5033 9.54706 20.4366 9.72706 20.3566 9.98039C20.2899 10.2204 20.2432 10.4204 20.2166 10.5804C20.1632 10.6871 20.0966 10.8404 20.0166 11.0404C19.9499 11.2271 19.8899 11.4071 19.8366 11.5804C19.8099 11.6471 19.7832 11.7737 19.7566 11.9604C19.7299 12.1337 19.6966 12.3137 19.6566 12.5004C19.6166 12.6871 19.5632 12.8337 19.4966 12.9404C19.3766 13.4871 19.1632 13.8071 18.8566 13.9004C18.5632 13.9937 18.3032 13.9137 18.0766 13.6604ZM20.2366 5.64039C20.0899 5.53372 19.9766 5.40706 19.8966 5.26039C19.8299 5.10039 19.7899 4.96039 19.7766 4.84039C19.7766 4.72039 19.7899 4.64706 19.8166 4.62039C19.9499 4.47372 20.0632 4.28039 20.1566 4.04039C20.2633 3.80039 20.3766 3.58039 20.4966 3.38039C20.5232 3.34039 20.5566 3.28706 20.5966 3.22039C20.6499 3.14039 20.7032 3.09372 20.7566 3.08039C20.9166 2.97372 21.1366 2.98039 21.4166 3.10039C21.7099 3.22039 21.9233 3.38706 22.0566 3.60039C22.1766 3.85372 22.2099 4.11372 22.1566 4.38039C22.1166 4.64706 21.9766 4.92706 21.7366 5.22039C21.5366 5.48706 21.2833 5.66039 20.9766 5.74039C20.6699 5.80706 20.4232 5.77372 20.2366 5.64039Z" fill="#EB0029"/>
<path d="M23.7624 14.0804C23.3757 14.1471 22.989 14.1137 22.6024 13.9804C22.229 13.8471 21.9157 13.6337 21.6624 13.3404C21.4224 13.0337 21.3024 12.6671 21.3024 12.2404C21.2624 11.8404 21.2957 11.3671 21.4024 10.8204C21.5224 10.2604 21.6957 9.70039 21.9224 9.14039C22.1624 8.58039 22.4357 8.10706 22.7424 7.72039C23.009 7.40039 23.2757 7.10706 23.5424 6.84039C23.809 6.57372 24.049 6.39372 24.2624 6.30039C24.449 6.22039 24.6757 6.16039 24.9424 6.12039C25.2224 6.06706 25.4157 6.04039 25.5224 6.04039C25.7357 6.09372 25.969 6.18039 26.2224 6.30039C26.489 6.42039 26.6224 6.56039 26.6224 6.72039C26.6224 6.72039 26.6357 6.74039 26.6624 6.78039C26.7024 6.80706 26.7224 6.82039 26.7224 6.82039C26.8024 6.82039 26.889 6.92039 26.9824 7.12039C27.089 7.30706 27.169 7.52706 27.2224 7.78039C27.2757 8.02039 27.2624 8.21372 27.1824 8.36039C27.129 8.61372 27.0224 8.86039 26.8624 9.10039C26.7157 9.34039 26.589 9.46039 26.4824 9.46039C26.429 9.46039 26.3757 9.46706 26.3224 9.48039C26.2824 9.48039 26.2624 9.51372 26.2624 9.58039C26.2624 9.64706 26.189 9.68039 26.0424 9.68039C25.909 9.68039 25.769 9.65372 25.6224 9.60039C25.4757 9.54706 25.3824 9.46706 25.3424 9.36039C25.3424 9.29372 25.3557 9.20706 25.3824 9.10039C25.409 8.99372 25.449 8.81372 25.5024 8.56039C25.5824 8.18706 25.589 7.94039 25.5224 7.82039C25.4557 7.68706 25.289 7.67372 25.0224 7.78039C24.689 7.96706 24.4157 8.18706 24.2024 8.44039C23.989 8.68039 23.7957 9.02039 23.6224 9.46039C23.4624 9.90039 23.2824 10.5137 23.0824 11.3004C23.0024 11.6071 22.989 11.8471 23.0424 12.0204C23.109 12.1937 23.1624 12.2871 23.2024 12.3004C23.389 12.3537 23.589 12.3671 23.8024 12.3404C24.029 12.3004 24.2157 12.2404 24.3624 12.1604C24.5757 12.0537 24.7624 11.9404 24.9224 11.8204C25.0957 11.6871 25.2824 11.5471 25.4824 11.4004C25.549 11.3604 25.609 11.2871 25.6624 11.1804C25.7157 11.0604 25.7957 10.9737 25.9024 10.9204C26.009 10.7604 26.1424 10.6804 26.3024 10.6804C26.4757 10.6671 26.6424 10.6604 26.8024 10.6604C26.909 10.6871 27.0224 10.7537 27.1424 10.8604C27.2624 10.9671 27.349 11.0737 27.4024 11.1804C27.469 11.2737 27.4624 11.3404 27.3824 11.3804C27.329 11.3804 27.2957 11.4004 27.2824 11.4404C27.2824 11.4671 27.2824 11.4804 27.2824 11.4804C27.309 11.5337 27.249 11.6537 27.1024 11.8404C26.969 12.0271 26.7957 12.2271 26.5824 12.4404C26.369 12.6537 26.1624 12.8404 25.9624 13.0004C25.7757 13.1471 25.6424 13.2204 25.5624 13.2204C25.429 13.2204 25.3624 13.2604 25.3624 13.3404C25.3624 13.3671 25.2624 13.4337 25.0624 13.5404C24.8757 13.6471 24.6557 13.7537 24.4024 13.8604C24.1624 13.9671 23.949 14.0404 23.7624 14.0804Z" fill="#EB0029"/>
<path d="M28.5475 13.8604C28.3475 13.7937 28.1675 13.6871 28.0075 13.5404C27.8609 13.3937 27.8009 13.1537 27.8275 12.8204C27.8542 12.6204 27.8942 12.4137 27.9475 12.2004C28.0009 11.9737 28.0675 11.7537 28.1475 11.5404C28.1875 11.3004 28.2342 11.0604 28.2875 10.8204C28.3542 10.5804 28.4609 10.3537 28.6075 10.1404C28.7809 9.64706 28.9609 9.16039 29.1475 8.68039C29.3342 8.18706 29.4942 7.67372 29.6275 7.14039C29.8275 6.66039 30.0075 6.23372 30.1675 5.86039C30.3409 5.48706 30.5475 5.00706 30.7875 4.42039C30.9209 4.11372 31.0342 3.77372 31.1275 3.40039C31.2342 3.01372 31.3942 2.67372 31.6075 2.38039C31.7009 2.26039 31.7675 2.16039 31.8075 2.08039C31.8609 1.98706 31.9142 1.90039 31.9675 1.82039C32.0609 1.63372 32.2009 1.54706 32.3875 1.56039C32.5875 1.57372 32.7209 1.62706 32.7875 1.72039C33.0142 1.81372 33.1742 1.98706 33.2675 2.24039C33.3609 2.48039 33.3942 2.65372 33.3675 2.76039C33.3675 2.90706 33.3142 3.06706 33.2075 3.24039C33.1542 3.29372 33.1009 3.37372 33.0475 3.48039C32.9942 3.57372 32.9142 3.70039 32.8075 3.86039C32.7542 4.03372 32.7009 4.20706 32.6475 4.38039C32.5942 4.55372 32.5342 4.71372 32.4675 4.86039C32.4009 5.00706 32.3275 5.15372 32.2475 5.30039C32.1675 5.44706 32.1142 5.56706 32.0875 5.66039C31.9675 5.96706 31.8342 6.26706 31.6875 6.56039C31.5542 6.84039 31.4342 7.14039 31.3275 7.46039C31.2209 7.76706 31.1075 8.09372 30.9875 8.44039C30.8675 8.77372 30.7142 9.09372 30.5275 9.40039C30.4342 9.53372 30.3809 9.71372 30.3675 9.94039C30.3675 10.1671 30.3409 10.3871 30.2875 10.6004C30.1942 10.8404 30.1075 11.0604 30.0275 11.2604C29.9609 11.4604 29.9275 11.5871 29.9275 11.6404C29.8342 11.9337 29.7609 12.2271 29.7075 12.5204C29.6542 12.8004 29.5675 13.0471 29.4475 13.2604C29.4475 13.5804 29.3609 13.7804 29.1875 13.8604C29.0142 13.9404 28.8009 13.9404 28.5475 13.8604ZM33.1275 14.0404C32.9142 14.0137 32.7542 13.9737 32.6475 13.9204C32.5409 13.8537 32.3409 13.7137 32.0475 13.5004C31.8875 13.3404 31.6875 13.0937 31.4475 12.7604C31.2075 12.4271 30.9675 12.0737 30.7275 11.7004C30.4875 11.3137 30.2742 10.9871 30.0875 10.7204L31.1875 9.32039C31.3609 9.53372 31.5009 9.73372 31.6075 9.92039C31.7142 10.1071 31.8009 10.2337 31.8675 10.3004C32.1742 10.7537 32.4142 11.1204 32.5875 11.4004C32.7609 11.6804 32.9075 11.9071 33.0275 12.0804C33.1609 12.2537 33.3075 12.4071 33.4675 12.5404C33.6275 12.6737 33.8342 12.8137 34.0875 12.9604C34.1275 12.9871 34.1675 13.0537 34.2075 13.1604C34.2475 13.2537 34.2609 13.3537 34.2475 13.4604C34.2209 13.6204 34.1209 13.7537 33.9475 13.8604C33.7875 13.9537 33.5142 14.0137 33.1275 14.0404ZM30.2275 10.3404C30.1475 10.1137 30.1275 9.86039 30.1675 9.58039C30.2209 9.28706 30.3342 9.09372 30.5075 9.00039C30.5609 8.90706 30.6142 8.84706 30.6675 8.82039C30.7342 8.78039 30.7742 8.73372 30.7875 8.68039C30.8142 8.62706 30.8809 8.55372 30.9875 8.46039C31.1075 8.36706 31.2142 8.28039 31.3075 8.20039C31.5209 8.06706 31.7542 7.90706 32.0075 7.72039C32.2742 7.52039 32.5275 7.32039 32.7675 7.12039C33.0209 6.92039 33.2275 6.74706 33.3875 6.60039C33.5609 6.45372 33.6675 6.36039 33.7075 6.32039C33.7475 6.26706 33.8275 6.23372 33.9475 6.22039C34.0809 6.20706 34.2075 6.22706 34.3275 6.28039C34.4875 6.32039 34.6142 6.40706 34.7075 6.54039C34.8142 6.67372 34.8675 6.86039 34.8675 7.10039C34.9075 7.24706 34.8209 7.42706 34.6075 7.64039C34.4075 7.84039 34.1542 8.04039 33.8475 8.24039C33.7409 8.30706 33.5942 8.40706 33.4075 8.54039C33.2342 8.67372 33.0809 8.80039 32.9475 8.92039C32.8542 8.97372 32.7142 9.06706 32.5275 9.20039C32.3542 9.32039 32.2009 9.44039 32.0675 9.56039C31.9609 9.62706 31.8342 9.74706 31.6875 9.92039C31.5542 10.0804 31.4009 10.2004 31.2275 10.2804C30.8009 10.6804 30.5409 10.8737 30.4475 10.8604C30.3675 10.8471 30.2942 10.6737 30.2275 10.3404Z" fill="#EB0029"/>
<path d="M40.9317 13.7204C40.8251 13.7471 40.6851 13.7604 40.5117 13.7604C40.3384 13.7471 40.1851 13.7271 40.0517 13.7004C39.9317 13.6604 39.8717 13.6204 39.8717 13.5804C39.8717 13.5137 39.8384 13.4804 39.7717 13.4804C39.7717 13.4804 39.6984 13.4271 39.5517 13.3204C39.4051 13.2004 39.2717 13.1137 39.1517 13.0604C39.0317 12.8737 38.9517 12.6604 38.9117 12.4204C38.8851 12.1671 38.9651 11.7271 39.1517 11.1004C39.1651 10.6737 39.2851 10.2271 39.5117 9.76039C39.7384 9.28039 40.0251 8.81372 40.3717 8.36039C40.7184 7.90706 41.0784 7.50706 41.4517 7.16039C41.8251 6.80039 42.1584 6.53372 42.4517 6.36039C42.6384 6.17372 42.8851 6.07372 43.1917 6.06039C43.5117 6.04706 43.7917 6.10706 44.0317 6.24039C44.1651 6.30706 44.3117 6.44039 44.4717 6.64039C44.6317 6.84039 44.7851 7.05372 44.9317 7.28039C45.0784 7.49372 45.1917 7.68706 45.2717 7.86039C45.3117 8.00706 45.3451 8.14039 45.3717 8.26039C45.4117 8.36706 45.4384 8.50039 45.4517 8.66039C45.4651 8.82039 45.4517 9.06039 45.4117 9.38039C45.3451 9.62039 45.2851 9.86706 45.2317 10.1204C45.1917 10.3604 45.1717 10.6071 45.1717 10.8604C45.1451 11.1137 45.1717 11.2937 45.2517 11.4004C45.3451 11.5071 45.4784 11.5137 45.6517 11.4204C45.8117 11.3404 45.9784 11.3337 46.1517 11.4004C46.3251 11.4537 46.4451 11.5604 46.5117 11.7204C46.5917 11.8671 46.5717 12.0604 46.4517 12.3004C46.3717 12.4737 46.2451 12.6404 46.0717 12.8004C45.8984 12.9604 45.7051 13.0937 45.4917 13.2004C45.2784 13.2937 45.0717 13.3404 44.8717 13.3404C44.7251 13.3404 44.5784 13.2871 44.4317 13.1804C44.2851 13.0604 44.1517 12.9004 44.0317 12.7004C43.9117 12.5004 43.8117 12.2804 43.7317 12.0404L43.6117 11.5804L42.8917 12.2404C42.7184 12.4271 42.5451 12.6004 42.3717 12.7604C42.2117 12.9071 42.1117 13.0137 42.0717 13.0804C42.0051 13.2004 41.8717 13.3071 41.6717 13.4004C41.4851 13.4937 41.2384 13.6004 40.9317 13.7204ZM41.4717 11.8004C41.6984 11.6671 41.8917 11.5071 42.0517 11.3204C42.2251 11.1337 42.3917 10.9271 42.5517 10.7004C42.7117 10.4604 42.8851 10.2071 43.0717 9.94039C43.2984 9.63372 43.4584 9.38706 43.5517 9.20039C43.6584 9.01372 43.7384 8.81372 43.7917 8.60039C43.7384 8.45372 43.6651 8.30039 43.5717 8.14039C43.4784 7.96706 43.3851 7.87372 43.2917 7.86039C43.1051 7.86039 42.8784 7.97372 42.6117 8.20039C42.3584 8.42706 42.0784 8.75372 41.7717 9.18039C41.7184 9.24706 41.6517 9.35372 41.5717 9.50039C41.4917 9.64706 41.4117 9.78706 41.3317 9.92039C41.2651 10.0404 41.2184 10.1204 41.1917 10.1604C41.1517 10.2137 41.0917 10.3404 41.0117 10.5404C40.9451 10.7271 40.8851 10.9204 40.8317 11.1204C40.7784 11.3071 40.7517 11.4404 40.7517 11.5204C40.7517 11.6004 40.7584 11.6871 40.7717 11.7804C40.7984 11.8737 40.8651 11.9337 40.9717 11.9604C41.0784 11.9871 41.2451 11.9337 41.4717 11.8004Z" fill="#EB0029"/>
<path d="M47.7949 13.3204C47.7415 13.3204 47.6149 13.2737 47.4149 13.1804C47.2149 13.0737 47.0882 12.9937 47.0349 12.9404C46.9415 12.8337 46.8815 12.7204 46.8549 12.6004C46.8282 12.4671 46.8149 12.2137 46.8149 11.8404C46.8149 11.4137 46.9015 10.9337 47.0749 10.4004C47.2482 9.85372 47.5415 9.12706 47.9549 8.22039L48.7749 6.56039C48.8415 6.46706 48.9015 6.38706 48.9549 6.32039C49.0082 6.24039 49.0682 6.16706 49.1349 6.10039C49.1615 6.10039 49.1949 6.10039 49.2349 6.10039C49.2882 6.10039 49.3282 6.10706 49.3549 6.12039C49.4749 6.13372 49.6615 6.20706 49.9149 6.34039C50.1815 6.47372 50.3415 6.67372 50.3949 6.94039C50.3949 7.11372 50.3682 7.32039 50.3149 7.56039C50.2615 7.78706 50.1015 8.08706 49.8349 8.46039C49.7282 8.59372 49.6215 8.78706 49.5149 9.04039C49.4215 9.29372 49.3349 9.53372 49.2549 9.76039C49.2415 9.78706 49.2015 9.85372 49.1349 9.96039C49.0815 10.0537 49.0282 10.1537 48.9749 10.2604C48.9215 10.3537 48.8949 10.4137 48.8949 10.4404L48.8149 10.6204L49.6749 9.78039C50.2749 9.18039 50.7815 8.75372 51.1949 8.50039C51.6082 8.24706 51.9549 8.14039 52.2349 8.18039C52.5282 8.22039 52.7615 8.38706 52.9349 8.68039C53.0282 8.81372 53.0949 8.96039 53.1349 9.12039C53.1749 9.26706 53.2015 9.44039 53.2149 9.64039C53.2282 9.84039 53.2215 10.0937 53.1949 10.4004V11.5404C53.4482 11.4737 53.6415 11.4204 53.7749 11.3804C53.9082 11.3271 54.0415 11.2804 54.1749 11.2404C54.2815 11.2137 54.3882 11.1871 54.4949 11.1604C54.6149 11.1337 54.7615 11.1137 54.9349 11.1004C54.9215 11.2737 54.8482 11.4871 54.7149 11.7404C54.5815 11.9937 54.4149 12.2471 54.2149 12.5004C54.0282 12.7537 53.8215 12.9671 53.5949 13.1404C53.3815 13.3137 53.1815 13.4004 52.9949 13.4004C52.8215 13.4004 52.6215 13.3471 52.3949 13.2404C52.1682 13.1204 51.9749 12.8937 51.8149 12.5604C51.7615 12.3871 51.7082 12.1871 51.6549 11.9604C51.6015 11.7337 51.5749 11.4937 51.5749 11.2404V10.3604C51.5749 10.2804 51.5682 10.2271 51.5549 10.2004C51.5549 10.1604 51.5482 10.1404 51.5349 10.1404C51.4815 10.1404 51.3082 10.2804 51.0149 10.5604C50.7349 10.8404 50.4482 11.1337 50.1549 11.4404C49.5415 12.0804 49.0282 12.5537 48.6149 12.8604C48.2149 13.1671 47.9415 13.3204 47.7949 13.3204Z" fill="#EB0029"/>
<path d="M1.48096 29.5804C1.42763 29.4737 1.30763 29.3671 1.12096 29.2604C0.947628 29.1537 0.860961 29.0737 0.860961 29.0204C0.860961 28.9671 0.827628 28.8871 0.760962 28.7804C0.707628 28.6604 0.654295 28.5737 0.600962 28.5204C0.534295 28.4404 0.554295 28.2471 0.660962 27.9404C0.767628 27.6204 0.927628 27.2337 1.14096 26.7804C1.35429 26.3271 1.58763 25.8671 1.84096 25.4004C1.94763 25.2937 2.05429 25.1537 2.16096 24.9804C2.26763 24.8071 2.34763 24.6937 2.40096 24.6404C2.40096 24.5871 2.42096 24.5404 2.46096 24.5004C2.50096 24.4471 2.54763 24.4204 2.60096 24.4204L2.76096 24.1004C2.78763 24.0471 2.86763 23.9404 3.00096 23.7804C3.14763 23.6204 3.32096 23.4471 3.52096 23.2604C3.72096 23.0604 3.92096 22.8737 4.12096 22.7004C4.3343 22.5271 4.50763 22.4004 4.64096 22.3204C4.92096 22.1337 5.20763 22.0471 5.50096 22.0604C5.80763 22.0737 6.06763 22.1671 6.28096 22.3404C6.32096 22.3804 6.40763 22.4604 6.54096 22.5804C6.68763 22.7004 6.84763 22.8337 7.02096 22.9804C7.20763 23.1271 7.36763 23.2604 7.50096 23.3804L8.24096 24.0404L7.90096 25.0404C7.72763 25.5737 7.68096 26.0404 7.76096 26.4404C7.84096 26.8404 7.96763 27.1871 8.14096 27.4804C8.20763 27.6271 8.29429 27.7404 8.40096 27.8204C8.52096 27.9004 8.67429 27.9537 8.86096 27.9804C8.96763 27.9937 9.06763 28.0337 9.16096 28.1004C9.25429 28.1671 9.30096 28.2737 9.30096 28.4204C9.30096 28.7404 9.24096 28.9737 9.12096 29.1204C9.01429 29.2537 8.89429 29.3337 8.76096 29.3604C8.32096 29.4137 7.90096 29.3671 7.50096 29.2204C7.10096 29.0737 6.74096 28.6937 6.42096 28.0804C6.36763 28.0004 6.29429 27.8537 6.20096 27.6404C6.12096 27.4137 6.07429 27.2671 6.06096 27.2004C6.00763 27.2671 5.93429 27.3537 5.84096 27.4604C5.76096 27.5537 5.68096 27.6404 5.60096 27.7204C4.65429 28.6804 3.84096 29.3071 3.16096 29.6004C2.49429 29.8804 1.93429 29.8737 1.48096 29.5804ZM2.58096 27.9204C2.67429 27.9337 2.82096 27.8871 3.02096 27.7804C3.22096 27.6604 3.48763 27.4671 3.82096 27.2004C4.27429 26.8137 4.64763 26.4937 4.94096 26.2404C5.23429 25.9871 5.52096 25.6604 5.80096 25.2604L6.24096 24.5404C6.10763 24.2337 5.98763 24.0337 5.88096 23.9404C5.77429 23.8471 5.66763 23.8004 5.56096 23.8004C5.38763 23.8004 5.18096 23.9137 4.94096 24.1404C4.70096 24.3537 4.42763 24.6737 4.12096 25.1004C3.82763 25.5137 3.49429 26.0337 3.12096 26.6604C2.94763 26.9537 2.81429 27.2404 2.72096 27.5204C2.62763 27.7871 2.58096 27.9204 2.58096 27.9204Z" fill="#EB0029"/>
<path d="M11.6067 34.0004C11.2334 34.1471 10.8401 34.1204 10.4267 33.9204C10.0267 33.7337 9.68007 33.4337 9.38674 33.0204C9.33341 32.9404 9.25341 32.7937 9.14674 32.5804C9.04007 32.3804 8.93341 32.1604 8.82674 31.9204C8.73341 31.6804 8.66007 31.4737 8.60674 31.3004C8.56674 31.1271 8.56674 31.0271 8.60674 31.0004C8.66007 30.8537 8.78008 30.7671 8.96674 30.7404C9.15341 30.7137 9.34007 30.7204 9.52674 30.7604C9.71341 30.8137 9.82008 30.8804 9.84674 30.9604C9.88674 31.0537 9.92674 31.1471 9.96674 31.2404C10.0067 31.3471 10.0534 31.4404 10.1067 31.5204C10.1734 31.6137 10.2334 31.6937 10.2867 31.7604C10.4334 31.9871 10.5934 32.1404 10.7667 32.2204C10.9401 32.3137 11.0734 32.3271 11.1667 32.2604C11.3934 32.0871 11.5601 31.8804 11.6667 31.6404C11.7867 31.4137 11.9401 31.0071 12.1267 30.4204C12.2734 29.9271 12.4001 29.5004 12.5067 29.1404C12.6134 28.7804 12.7267 28.4471 12.8467 28.1404C12.8867 27.9804 12.9334 27.8471 12.9867 27.7404C13.0534 27.6204 13.1134 27.5337 13.1667 27.4804H13.2867C12.9934 27.6671 12.7467 27.8537 12.5467 28.0404C12.3467 28.2271 12.0734 28.3937 11.7267 28.5404C11.6467 28.6337 11.4467 28.6937 11.1267 28.7204C10.8201 28.7337 10.5201 28.6937 10.2267 28.6004C10.0401 28.4937 9.88674 28.3871 9.76674 28.2804C9.66008 28.1604 9.56674 28.0271 9.48674 27.8804C9.42007 27.7337 9.34674 27.5604 9.26674 27.3604C9.17341 27.1604 9.16008 26.8337 9.22674 26.3804C9.29341 25.9271 9.41341 25.4737 9.58674 25.0204C9.74674 24.6871 9.98007 24.3271 10.2867 23.9404C10.5934 23.5537 10.9201 23.2071 11.2667 22.9004C11.6134 22.5804 11.9267 22.3804 12.2067 22.3004C12.3134 22.2471 12.5001 22.1871 12.7667 22.1204C13.0334 22.0404 13.2867 22.0337 13.5267 22.1004C13.7534 22.1271 13.9267 22.1804 14.0467 22.2604C14.1667 22.3271 14.3601 22.4737 14.6267 22.7004C14.8001 22.8737 15.0134 23.1004 15.2667 23.3804C15.5201 23.6471 15.6801 23.8737 15.7467 24.0604C15.8401 24.2604 15.8601 24.4804 15.8067 24.7204C15.7534 24.9471 15.6601 25.1471 15.5267 25.3204C15.4067 25.4937 15.2801 25.6671 15.1467 25.8404C15.0134 26.0137 14.9134 26.2537 14.8467 26.5604C14.7801 26.9604 14.6534 27.4137 14.4667 27.9204C14.2801 28.4137 14.1334 28.8737 14.0267 29.3004L13.7067 30.5404C13.3734 31.6737 13.0067 32.4937 12.6067 33.0004C12.2067 33.5204 11.8734 33.8537 11.6067 34.0004ZM11.1867 27.1204C11.4534 27.1071 11.6801 27.0804 11.8667 27.0404C12.0667 26.9871 12.2534 26.8804 12.4267 26.7204C12.6001 26.5471 12.8001 26.2871 13.0267 25.9404C13.2534 25.6204 13.4134 25.3271 13.5067 25.0604C13.6001 24.7937 13.6334 24.4937 13.6067 24.1604C13.5934 23.9471 13.5334 23.8071 13.4267 23.7404C13.3201 23.6737 13.1801 23.6537 13.0067 23.6804C12.7534 23.7204 12.5267 23.8271 12.3267 24.0004C12.1267 24.1604 11.8934 24.4137 11.6267 24.7604C11.4267 25.0271 11.2601 25.3471 11.1267 25.7204C10.9934 26.1204 10.9334 26.4404 10.9467 26.6804C10.9734 26.9204 11.0534 27.0671 11.1867 27.1204Z" fill="#EB0029"/>
<path d="M18.0319 30.3604C17.2986 30.3604 16.7319 30.1471 16.3319 29.7204C15.9452 29.2937 15.7519 28.6404 15.7519 27.7604C15.7519 27.2804 15.8386 26.7537 16.0119 26.1804C16.1986 25.6071 16.4386 25.0471 16.7319 24.5004C17.0386 23.9537 17.3719 23.4804 17.7319 23.0804C18.0919 22.6671 18.4519 22.3804 18.8119 22.2204C18.9452 22.1537 19.0852 22.1071 19.2319 22.0804C19.3919 22.0404 19.5452 22.0204 19.6919 22.0204C19.8519 22.0204 20.0252 22.0337 20.2119 22.0604C20.4119 22.0737 20.5986 22.1137 20.7719 22.1804C21.0786 22.2737 21.3452 22.4537 21.5719 22.7204C21.8119 22.9871 21.9319 23.3737 21.9319 23.8804C21.9319 24.0137 21.9186 24.1604 21.8919 24.3204C21.8652 24.4671 21.8186 24.6137 21.7519 24.7604C21.5786 25.2004 21.3119 25.6204 20.9519 26.0204C20.6052 26.4204 20.2386 26.7004 19.8519 26.8604C19.7452 26.9137 19.6386 26.9537 19.5319 26.9804C19.4386 26.9937 19.3386 27.0004 19.2319 27.0004C18.9519 27.0004 18.6986 26.9604 18.4719 26.8804C18.2586 26.8004 18.0586 26.6937 17.8719 26.5604L17.7119 26.4204L17.6119 26.6204C17.5186 26.8737 17.4519 27.0871 17.4119 27.2604C17.3852 27.4337 17.3719 27.5604 17.3719 27.6404C17.3719 27.8004 17.3786 27.9671 17.3919 28.1404C17.4052 28.3004 17.4452 28.4337 17.5119 28.5404C17.5652 28.6071 17.6319 28.6604 17.7119 28.7004C17.8052 28.7404 17.9186 28.7604 18.0519 28.7604C18.1319 28.7604 18.2052 28.7604 18.2719 28.7604C18.3519 28.7471 18.4186 28.7337 18.4719 28.7204C18.7119 28.6671 18.9052 28.5804 19.0519 28.4604C19.2119 28.3271 19.3786 28.2137 19.5519 28.1204L19.6319 28.0804L19.6119 28.0204C19.8386 27.9004 19.9919 27.8271 20.0719 27.8004C20.1519 27.7604 20.2119 27.7271 20.2519 27.7004C20.3052 27.6471 20.3652 27.6204 20.4319 27.6204C20.6186 27.5937 20.7986 27.6471 20.9719 27.7804C21.1586 27.9004 21.2519 28.0537 21.2519 28.2404C21.2519 28.3204 21.1919 28.4471 21.0719 28.6204C20.9652 28.7937 20.8252 28.9671 20.6519 29.1404C20.4919 29.3004 20.3252 29.4271 20.1519 29.5204C20.1119 29.5337 20.0719 29.5537 20.0319 29.5804C19.9919 29.5937 19.9519 29.6137 19.9119 29.6404H19.9319C19.8119 29.8004 19.6919 29.8804 19.5719 29.8804H19.4119C19.3586 29.9737 19.1852 30.0737 18.8919 30.1804C18.5986 30.3004 18.3119 30.3604 18.0319 30.3604ZM19.0719 25.5404C19.1919 25.5404 19.2986 25.5204 19.3919 25.4804C19.4986 25.4404 19.5986 25.3937 19.6919 25.3404C20.0119 25.1137 20.2186 24.8204 20.3119 24.4604C20.4052 24.1004 20.3719 23.8271 20.2119 23.6404C20.1852 23.6004 20.1519 23.5737 20.1119 23.5604C20.0719 23.5337 20.0252 23.5204 19.9719 23.5204C19.8252 23.5204 19.6586 23.5671 19.4719 23.6604C19.2986 23.7537 19.1252 23.8871 18.9519 24.0604C18.7786 24.2337 18.6186 24.4404 18.4719 24.6804L18.2119 25.1004C18.2386 25.0871 18.2586 25.0804 18.2719 25.0804C18.2986 25.0671 18.3186 25.0604 18.3319 25.0604C18.4519 25.0604 18.5319 25.1004 18.5719 25.1804C18.6119 25.2604 18.6586 25.3404 18.7119 25.4204C18.7786 25.5004 18.8986 25.5404 19.0719 25.5404Z" fill="#EB0029"/>
<path d="M28.0953 33.8804C27.9487 33.8937 27.722 33.8604 27.4153 33.7804C27.1087 33.7137 26.8087 33.5804 26.5153 33.3804C26.1553 33.0737 25.9087 32.8204 25.7753 32.6204C25.642 32.4204 25.5687 32.2404 25.5553 32.0804C25.5553 31.9337 25.562 31.8004 25.5753 31.6804C25.642 31.3871 25.782 31.2471 25.9953 31.2604C26.222 31.2737 26.3953 31.3337 26.5153 31.4404C26.6487 31.5471 26.7887 31.6737 26.9353 31.8204C27.0953 31.9804 27.2487 32.1204 27.3953 32.2404C27.5553 32.3604 27.6887 32.4137 27.7953 32.4004C28.062 32.3737 28.282 32.2604 28.4553 32.0604C28.6287 31.8737 28.802 31.5737 28.9753 31.1604C29.082 30.8671 29.162 30.6137 29.2153 30.4004C29.282 30.1871 29.3487 29.9537 29.4153 29.7004C29.482 29.4471 29.562 29.1071 29.6553 28.6804C29.722 28.3737 29.7687 28.1604 29.7953 28.0404C29.8353 27.9071 29.8553 27.8271 29.8553 27.8004C29.8553 27.7604 29.8487 27.7404 29.8353 27.7404C29.8353 27.7404 29.7887 27.7671 29.6953 27.8204C29.602 27.8737 29.4687 27.9337 29.2953 28.0004C29.1353 28.0671 28.9553 28.1337 28.7553 28.2004C28.382 28.3204 28.0087 28.4271 27.6353 28.5204C27.262 28.6004 26.9753 28.6071 26.7753 28.5404C26.5753 28.4604 26.4153 28.3271 26.2953 28.1404C26.1753 27.9537 26.0953 27.7537 26.0553 27.5404C26.0287 27.3271 26.022 27.1537 26.0353 27.0204C26.062 26.9137 26.122 26.7404 26.2153 26.5004C26.3087 26.2604 26.4153 26.0071 26.5353 25.7404C26.6553 25.4737 26.7687 25.2404 26.8753 25.0404C26.982 24.8404 27.0687 24.7337 27.1353 24.7204C27.1887 24.6937 27.2353 24.6404 27.2753 24.5604C27.3287 24.4671 27.3553 24.3937 27.3553 24.3404C27.3687 24.2871 27.422 24.2004 27.5153 24.0804C27.622 23.9604 27.922 23.7271 28.4153 23.3804C28.9087 22.9137 29.3553 22.5671 29.7553 22.3404C30.1553 22.1004 30.522 21.9671 30.8553 21.9404C30.9487 21.9537 31.0353 21.9604 31.1153 21.9604C31.2087 21.9604 31.2553 21.9604 31.2553 21.9604C31.2553 21.9604 31.3287 21.9804 31.4753 22.0204C31.622 22.0604 31.7687 22.1137 31.9153 22.1804C32.0887 22.2471 32.2753 22.4071 32.4753 22.6604C32.6753 22.9004 32.8487 23.1671 32.9953 23.4604C33.142 23.7537 33.222 24.0204 33.2353 24.2604C33.222 24.5537 33.1553 24.8471 33.0353 25.1404C32.9153 25.4337 32.802 25.5737 32.6953 25.5604C32.5887 25.5471 32.4687 25.5871 32.3353 25.6804C32.2153 25.7604 32.122 25.9204 32.0553 26.1604C32.0153 26.2137 31.9687 26.3004 31.9153 26.4204C31.862 26.5271 31.802 26.6337 31.7353 26.7404C31.722 26.8071 31.6887 26.9737 31.6353 27.2404C31.582 27.4937 31.5153 27.7804 31.4353 28.1004C31.3687 28.4071 31.3087 28.6937 31.2553 28.9604C31.202 29.2137 31.1687 29.3804 31.1553 29.4604C31.142 29.5137 31.1087 29.6404 31.0553 29.8404C31.002 30.0271 30.9353 30.2404 30.8553 30.4804C30.7887 30.7204 30.7153 30.9404 30.6353 31.1404C30.582 31.5271 30.4753 31.8604 30.3153 32.1404C30.1553 32.4337 29.982 32.6937 29.7953 32.9204C29.4887 33.2537 29.182 33.487 28.8753 33.6204C28.582 33.7671 28.322 33.8537 28.0953 33.8804ZM27.7153 26.8804C27.7553 26.9871 27.862 27.0271 28.0353 27.0004C28.222 26.9737 28.4753 26.9137 28.7953 26.8204C29.182 26.6604 29.4687 26.5337 29.6553 26.4404C29.8553 26.3471 30.0087 26.2271 30.1153 26.0804C30.1953 25.9737 30.2687 25.8671 30.3353 25.7604C30.4153 25.6537 30.4887 25.5604 30.5553 25.4804C30.582 25.4537 30.622 25.4071 30.6753 25.3404C30.742 25.2737 30.7953 25.2137 30.8353 25.1604C30.9153 25.1071 30.982 25.0604 31.0353 25.0204C31.102 24.9671 31.162 24.9204 31.2153 24.8804C31.282 24.8537 31.342 24.7937 31.3953 24.7004C31.4487 24.5937 31.462 24.4871 31.4353 24.3804C31.422 24.2871 31.362 24.1604 31.2553 24.0004C31.1487 23.8271 31.002 23.6937 30.8153 23.6004C30.642 23.4937 30.4353 23.5671 30.1953 23.8204C29.9687 24.0737 29.602 24.4137 29.0953 24.8404C28.802 25.1604 28.542 25.4604 28.3153 25.7404C28.0887 26.0071 27.922 26.2404 27.8153 26.4404C27.7087 26.6271 27.6753 26.7737 27.7153 26.8804Z" fill="#EB0029"/>
<path d="M33.6205 29.7004C33.5272 29.7004 33.4005 29.6337 33.2405 29.5004C33.0938 29.3671 33.0072 29.2471 32.9805 29.1404C32.9405 29.0337 32.9405 28.8804 32.9805 28.6804C33.0338 28.4671 33.1072 28.2204 33.2005 27.9404C33.3072 27.5004 33.3805 27.1804 33.4205 26.9804C33.4605 26.7804 33.5005 26.6071 33.5405 26.4604C33.5805 26.3137 33.6338 26.1004 33.7005 25.8204C33.7805 25.6471 33.8405 25.4804 33.8805 25.3204C33.9338 25.1471 33.9872 24.9737 34.0405 24.8004C34.1072 24.6271 34.1805 24.4537 34.2605 24.2804C34.3538 23.9337 34.4672 23.6071 34.6005 23.3004C34.7472 22.9804 34.8872 22.7137 35.0205 22.5004C35.0472 22.4604 35.1072 22.3871 35.2005 22.2804C35.2938 22.1737 35.3672 22.1204 35.4205 22.1204C35.5272 22.0137 35.6738 21.9804 35.8605 22.0204C36.0472 22.0471 36.2072 22.1137 36.3405 22.2204C36.5005 22.3937 36.5872 22.6004 36.6005 22.8404C36.6272 23.0671 36.5338 23.3871 36.3205 23.8004C36.1605 24.2137 36.0072 24.5404 35.8605 24.7804C35.7272 25.0071 35.5938 25.2737 35.4605 25.5804C35.6072 25.3671 35.7872 25.1471 36.0005 24.9204C36.2138 24.6937 36.3805 24.5137 36.5005 24.3804C36.6738 24.1937 36.8338 24.0471 36.9805 23.9404C37.1405 23.8204 37.3538 23.6737 37.6205 23.5004C37.8472 23.3404 38.0738 23.1937 38.3005 23.0604C38.5405 22.9271 38.8272 22.8871 39.1605 22.9404C39.2938 22.9271 39.4338 22.9937 39.5805 23.1404C39.7405 23.2871 39.8605 23.4804 39.9405 23.7204C40.0338 23.9471 40.0338 24.1937 39.9405 24.4604C39.6338 24.3937 39.3605 24.4071 39.1205 24.5004C38.8805 24.5804 38.6738 24.6804 38.5005 24.8004C38.3405 24.9204 38.2138 25.0137 38.1205 25.0804C37.9872 25.1604 37.8338 25.2671 37.6605 25.4004C37.4872 25.5204 37.3005 25.6604 37.1005 25.8204C36.9005 25.9671 36.6872 26.1337 36.4605 26.3204C36.1405 26.5871 35.9005 26.8204 35.7405 27.0204C35.5805 27.2204 35.4538 27.4337 35.3605 27.6604C35.2805 27.8604 35.1805 28.1004 35.0605 28.3804C34.9405 28.6604 34.8272 28.9137 34.7205 29.1404C34.6138 29.3537 34.5272 29.4871 34.4605 29.5404C34.3938 29.6737 34.2538 29.7471 34.0405 29.7604C33.8405 29.7737 33.7005 29.7537 33.6205 29.7004Z" fill="#EB0029"/>
<path d="M41.5875 30.1804C41.4142 30.1937 41.2742 30.1737 41.1675 30.1204C41.0609 30.0804 40.9275 30.0137 40.7675 29.9204C40.4742 29.6937 40.2275 29.4137 40.0275 29.0804C39.8409 28.7471 39.7542 28.4671 39.7675 28.2404C39.7942 28.1204 39.7942 28.0137 39.7675 27.9204C39.7542 27.8271 39.7475 27.7804 39.7475 27.7804C39.6675 27.7137 39.6409 27.6737 39.6675 27.6604C39.6942 27.6337 39.7142 27.5937 39.7275 27.5404C39.8342 27.5137 39.8475 27.4404 39.7675 27.3204C39.7275 27.2137 39.7475 26.9737 39.8275 26.6004C39.9209 26.2137 40.0409 25.8537 40.1875 25.5204C40.2542 25.3737 40.3475 25.1804 40.4675 24.9404C40.6009 24.7004 40.7475 24.4604 40.9075 24.2204C41.0675 23.9671 41.2142 23.7671 41.3475 23.6204C41.6409 23.2871 41.9009 23.0137 42.1275 22.8004C42.3675 22.5871 42.6342 22.4271 42.9275 22.3204C43.1942 22.2137 43.4609 22.1671 43.7275 22.1804C44.0075 22.1937 44.2542 22.2871 44.4675 22.4604C44.7875 22.5537 45.0742 22.7004 45.3275 22.9004C45.5809 23.0871 45.7542 23.3537 45.8475 23.7004C45.9542 24.0871 45.9875 24.5471 45.9475 25.0804C45.9209 25.6004 45.6942 26.2737 45.2675 27.1004C45.0142 27.6204 44.7609 28.0404 44.5075 28.3604C44.2675 28.6804 43.9742 28.9871 43.6275 29.2804C43.3742 29.4937 43.0475 29.6804 42.6475 29.8404C42.2475 30.0004 41.8942 30.1137 41.5875 30.1804ZM43.3275 27.1604C43.5009 26.9204 43.6342 26.6871 43.7275 26.4604C43.8342 26.2337 43.9342 25.9204 44.0275 25.5204C44.0675 25.3737 44.0875 25.1937 44.0875 24.9804C44.1009 24.7671 44.0942 24.5737 44.0675 24.4004C44.0542 24.2137 44.0075 24.1137 43.9275 24.1004C43.7542 24.0337 43.5742 24.0337 43.3875 24.1004C43.2142 24.1537 43.0075 24.3137 42.7675 24.5804C42.5542 24.8204 42.3809 25.0471 42.2475 25.2604C42.1275 25.4604 42.0142 25.7071 41.9075 26.0004C41.8142 26.2804 41.7075 26.6471 41.5875 27.1004C41.4809 27.5404 41.4742 27.8937 41.5675 28.1604C41.6742 28.4271 41.8742 28.5004 42.1675 28.3804C42.4609 28.2604 42.8475 27.8537 43.3275 27.1604Z" fill="#EB0029"/>
<path d="M50.9936 29.9604C50.8603 29.8271 50.7536 29.6471 50.6736 29.4204C50.5936 29.1804 50.5136 28.9071 50.4336 28.6004C50.4069 28.4937 50.3936 28.3737 50.3936 28.2404C50.4069 28.1071 50.4069 28.0004 50.3936 27.9204C50.3536 28.0137 50.2869 28.1337 50.1936 28.2804C50.1136 28.4271 50.0336 28.5337 49.9536 28.6004C49.9003 28.6537 49.7803 28.7604 49.5936 28.9204C49.4069 29.0671 49.2203 29.1871 49.0336 29.2804C48.5936 29.5604 48.2003 29.6937 47.8536 29.6804C47.5203 29.6537 47.2269 29.4804 46.9736 29.1604C46.7603 28.9871 46.5869 28.7671 46.4536 28.5004C46.3203 28.2337 46.2936 27.9137 46.3736 27.5404C46.4003 27.0737 46.4669 26.6204 46.5736 26.1804C46.6803 25.7271 46.9003 25.1271 47.2336 24.3804C47.5136 23.8337 47.7269 23.4071 47.8736 23.1004C48.0203 22.7937 48.1136 22.6137 48.1536 22.5604C48.3536 22.4937 48.6003 22.5004 48.8936 22.5804C49.1869 22.6471 49.3469 22.7737 49.3736 22.9604C49.4536 23.0937 49.4536 23.3471 49.3736 23.7204C49.2936 24.0804 49.1336 24.4937 48.8936 24.9604C48.7069 25.4137 48.5269 25.8537 48.3536 26.2804C48.1936 26.7071 48.0936 27.0671 48.0536 27.3604C48.0269 27.6537 48.1069 27.8337 48.2936 27.9004C48.4136 27.9671 48.5869 27.9604 48.8136 27.8804C49.0536 27.8004 49.3336 27.5604 49.6536 27.1604C49.9736 26.7604 50.3136 26.1271 50.6736 25.2604C50.7803 24.9937 50.8603 24.7604 50.9136 24.5604C50.9669 24.3471 51.0003 24.1137 51.0136 23.8604C50.9869 23.7004 51.0269 23.5337 51.1336 23.3604C51.2536 23.1871 51.3936 23.0537 51.5536 22.9604C51.6069 22.8937 51.6803 22.8337 51.7736 22.7804C51.8669 22.7137 51.9269 22.7137 51.9536 22.7804L52.2736 22.7604C52.3269 22.7471 52.3869 22.8004 52.4536 22.9204C52.5203 23.0404 52.5869 23.1271 52.6536 23.1804C52.8003 23.3004 52.8669 23.5604 52.8536 23.9604C52.8403 24.3604 52.6803 24.9204 52.3736 25.6404C52.1203 26.1871 51.9469 26.6004 51.8536 26.8804C51.7736 27.1604 51.7269 27.4337 51.7136 27.7004C51.7136 27.9404 51.7336 28.1471 51.7736 28.3204C51.8136 28.4804 51.9336 28.6471 52.1336 28.8204C52.2803 28.9137 52.3603 29.0737 52.3736 29.3004C52.4003 29.5137 52.4069 29.7004 52.3936 29.8604C52.3669 29.9804 52.2603 30.0604 52.0736 30.1004C51.9003 30.1537 51.7069 30.1671 51.4936 30.1404C51.2936 30.1137 51.1269 30.0537 50.9936 29.9604Z" fill="#EB0029"/>
<path d="M52.296 34.6604C52.2426 34.6604 52.1626 34.6604 52.056 34.6604C51.9626 34.6737 51.8826 34.6204 51.816 34.5004C51.7626 34.4337 51.6826 34.3004 51.576 34.1004C51.4693 33.9137 51.4493 33.6471 51.516 33.3004C51.5826 33.0737 51.636 32.847 51.676 32.6204C51.716 32.4071 51.736 32.2471 51.736 32.1404C51.736 32.0871 51.7493 31.9804 51.776 31.8204C51.816 31.6737 51.836 31.5671 51.836 31.5004C51.9026 31.3937 51.956 31.2471 51.996 31.0604C52.036 30.8737 52.056 30.7071 52.056 30.5604C52.056 30.4004 52.136 30.2537 52.296 30.1204C52.296 30.0137 52.316 29.8804 52.356 29.7204C52.4093 29.5604 52.436 29.4537 52.436 29.4004C52.476 29.2137 52.5626 28.8871 52.696 28.4204C52.8426 27.9404 53.016 27.4004 53.216 26.8004C53.4293 26.2004 53.636 25.6137 53.836 25.0404C54.036 24.4671 54.216 23.9804 54.376 23.5804C54.536 23.2071 54.6693 22.8604 54.776 22.5404C54.8826 22.2204 54.936 21.9937 54.936 21.8604C54.936 21.8071 54.9493 21.7671 54.976 21.7404C55.0026 21.7004 55.0626 21.6271 55.156 21.5204C55.2893 21.3871 55.4626 21.3404 55.676 21.3804C55.9026 21.4071 56.0893 21.4737 56.236 21.5804C56.3426 21.7537 56.416 21.9137 56.456 22.0604C56.5093 22.1937 56.5093 22.4071 56.456 22.7004C56.456 22.9004 56.4093 23.0871 56.316 23.2604C56.2226 23.4204 56.136 23.5537 56.056 23.6604C55.9893 23.7537 55.9693 23.7937 55.996 23.7804C56.5826 23.4204 57.1093 23.2271 57.576 23.2004C58.056 23.1604 58.456 23.2404 58.776 23.4404C59.1093 23.6271 59.3626 23.8871 59.536 24.2204C59.7093 24.5537 59.796 24.9137 59.796 25.3004C59.796 25.4604 59.7426 25.6737 59.636 25.9404C59.5293 26.2071 59.4093 26.4604 59.276 26.7004C59.1426 26.9271 59.036 27.0804 58.956 27.1604C58.9026 27.1604 58.8493 27.2071 58.796 27.3004C58.7426 27.3804 58.6893 27.4737 58.636 27.5804C58.5293 27.7137 58.3493 27.8671 58.096 28.0404C57.856 28.2004 57.6093 28.3337 57.356 28.4404C57.1026 28.5337 56.9226 28.5604 56.816 28.5204C56.816 28.5204 56.796 28.5337 56.756 28.5604C56.7293 28.5871 56.716 28.6337 56.716 28.7004C56.716 28.7271 56.6226 28.7804 56.436 28.8604C56.2493 28.9404 56.0293 29.0137 55.776 29.0804C55.5226 29.1471 55.2893 29.1804 55.076 29.1804C54.796 29.1804 54.596 29.1271 54.476 29.0204C54.4493 29.0471 54.416 29.0871 54.376 29.1404C54.3493 29.1937 54.336 29.2404 54.336 29.2804C54.336 29.3604 54.3026 29.4871 54.236 29.6604C54.1826 29.8337 54.116 29.9871 54.036 30.1204C53.956 30.2671 53.8826 30.3404 53.816 30.3404C53.816 30.3404 53.8026 30.3604 53.776 30.4004C53.7493 30.4404 53.7626 30.4937 53.816 30.5604C53.816 30.5604 53.8093 30.6337 53.796 30.7804C53.796 30.9404 53.7626 31.0737 53.696 31.1804C53.696 31.2871 53.676 31.4471 53.636 31.6604C53.596 31.8737 53.5493 32.0337 53.496 32.1404C53.496 32.3004 53.4693 32.4537 53.416 32.6004C53.376 32.7604 53.3293 32.8404 53.276 32.8404C53.2226 32.8537 53.1893 32.9337 53.176 33.0804C53.1626 33.2404 53.156 33.3537 53.156 33.4204C53.1426 33.7537 53.036 34.0404 52.836 34.2804C52.636 34.5337 52.456 34.6604 52.296 34.6604ZM54.856 27.6604C54.9626 27.6604 55.156 27.6137 55.436 27.5204C55.716 27.4271 56.0093 27.3137 56.316 27.1804C56.6226 27.0337 56.8626 26.8871 57.036 26.7404C57.3826 26.4337 57.6493 26.1337 57.836 25.8404C58.036 25.5471 58.0226 25.2204 57.796 24.8604C57.6893 24.6737 57.516 24.6004 57.276 24.6404C57.0493 24.6671 56.796 24.7737 56.516 24.9604C56.236 25.1471 55.9493 25.3804 55.656 25.6604C55.496 25.8337 55.3493 26.0337 55.216 26.2604C55.0826 26.4871 54.9693 26.7071 54.876 26.9204C54.796 27.1337 54.7493 27.3137 54.736 27.4604C54.7226 27.5937 54.7626 27.6604 54.856 27.6604Z" fill="#EB0029"/>
<path d="M61.2746 28.9604C60.9946 29.0537 60.7612 29.1004 60.5746 29.1004C60.3879 29.0871 60.1812 29.0004 59.9545 28.8404C59.6879 28.5737 59.5945 28.3071 59.6745 28.0404C59.7679 27.7604 60.0079 27.4871 60.3946 27.2204C60.6612 27.0604 60.8545 26.9804 60.9745 26.9804C61.1079 26.9671 61.3012 27.0137 61.5546 27.1204C62.0079 27.4004 62.2079 27.7137 62.1545 28.0604C62.1012 28.3937 61.8079 28.6937 61.2746 28.9604Z" fill="#EB0029"/>
</svg>
