<svg width="182" height="28" viewBox="0 0 182 28" fill="none" xmlns="http://www.w3.org/2000/svg">
<path d="M8 12C8 5.37258 13.3726 0 20 0H162C168.627 0 174 5.37258 174 12V28H8V12Z" fill="#EB0029"/>
<path d="M49.5508 21H52.6388V17.64H54.3188C57.1508 17.64 59.2628 16.2 59.2628 13.464V13.432C59.2628 10.888 57.4068 9.352 54.5108 9.352H49.5508V21ZM52.6388 15.16V11.992H54.2548C55.4388 11.992 56.1748 12.52 56.1748 13.56V13.592C56.1748 14.52 55.4548 15.16 54.2868 15.16H52.6388ZM66.6873 21.224C70.2873 21.224 72.9593 18.52 72.9593 15.176V15.144C72.9593 11.8 70.3193 9.128 66.7193 9.128C63.1193 9.128 60.4473 11.832 60.4473 15.176V15.208C60.4473 18.552 63.0873 21.224 66.6873 21.224ZM66.7193 18.424C64.8793 18.424 63.6313 16.92 63.6313 15.176V15.144C63.6313 13.4 64.8633 11.928 66.6873 11.928C68.5273 11.928 69.7753 13.432 69.7753 15.176V15.208C69.7753 16.952 68.5593 18.424 66.7193 18.424ZM74.8789 21H77.9669V17.64H79.6469C82.4789 17.64 84.5909 16.2 84.5909 13.464V13.432C84.5909 10.888 82.7349 9.352 79.8389 9.352H74.8789V21ZM77.9669 15.16V11.992H79.5829C80.7669 11.992 81.5029 12.52 81.5029 13.56V13.592C81.5029 14.52 80.7829 15.16 79.6149 15.16H77.9669ZM91.3594 21.208C94.6234 21.208 96.7354 19.544 96.7354 15.832V9.352H93.6154V15.944C93.6154 17.608 92.7514 18.408 91.3914 18.408C90.0314 18.408 89.1674 17.576 89.1674 15.848V9.352H86.0474V15.912C86.0474 19.512 88.0954 21.208 91.3594 21.208ZM98.9258 21H107.694V18.264H102.014V9.352H98.9258V21ZM113.444 16.344L114.804 12.952L116.148 16.344H113.444ZM108.388 21H111.62L112.5 18.808H117.092L117.972 21H121.268L116.308 9.272H113.348L108.388 21ZM125.764 14.968V12.04H127.972C129.092 12.04 129.78 12.536 129.78 13.496V13.528C129.78 14.392 129.124 14.968 128.004 14.968H125.764ZM122.676 21H125.764V17.432H127.316L129.684 21H133.268L130.468 16.92C131.924 16.312 132.884 15.144 132.884 13.336V13.288C132.884 12.152 132.532 11.256 131.86 10.6C131.076 9.8 129.86 9.352 128.148 9.352H122.676V21Z" fill="white"/>
<path d="M174 16C174 20.4183 177.582 24 182 24V28H172V16H174Z" fill="#EB0029"/>
<path d="M8 16C8 20.4183 4.41828 24 0 24V28H10V16H8Z" fill="#EB0029"/>
</svg>
