<svg width="16" height="17" viewBox="0 0 16 17" fill="none" xmlns="http://www.w3.org/2000/svg">
<path fill-rule="evenodd" clip-rule="evenodd" d="M8 16.5C12.4183 16.5 16 12.9183 16 8.5C16 4.08172 12.4183 0.5 8 0.5C3.58172 0.5 0 4.08172 0 8.5C0 12.9183 3.58172 16.5 8 16.5ZM11.5221 7.03843C11.8195 6.75007 11.8268 6.27525 11.5384 5.97789C11.2501 5.68053 10.7753 5.67322 10.4779 5.96157L6.875 9.45529L5.52211 8.14339C5.22475 7.85504 4.74993 7.86234 4.46157 8.15971C4.17322 8.45707 4.18053 8.93189 4.47789 9.22024L6.35289 11.0384C6.64381 11.3205 7.10619 11.3205 7.39711 11.0384L11.5221 7.03843Z" fill="#D3D3D3"/>
</svg>
